<svg xmlns="http://www.w3.org/2000/svg" xmlns:xlink="http://www.w3.org/1999/xlink" width="452.6" height="298.807" viewBox="0 0 452.6 298.807">
  <defs>
    <linearGradient id="linear-gradient" x1="-0.232" y1="0.5" x2="0.769" y2="0.5" gradientUnits="objectBoundingBox">
      <stop offset="0" stop-color="gray" stop-opacity="0.251"/>
      <stop offset="0.54" stop-color="gray" stop-opacity="0.122"/>
      <stop offset="1" stop-color="gray" stop-opacity="0.102"/>
    </linearGradient>
    <linearGradient id="linear-gradient-2" x1="-3.46" y1="0.929" x2="-3.46" y2="-0.082" xlink:href="#linear-gradient"/>
  </defs>
  <g id="Group_9" data-name="Group 9" transform="translate(0 -0.005)">
    <circle id="Ellipse_1" data-name="Ellipse 1" cx="8.906" cy="8.906" r="8.906" transform="translate(396.91 143.895)" fill="#ff6584" opacity="0.1"/>
    <circle id="Ellipse_2" data-name="Ellipse 2" cx="14.926" cy="14.926" r="14.926" transform="translate(422.748 98.165)" fill="#ff6584" opacity="0.1"/>
    <circle id="Ellipse_3" data-name="Ellipse 3" cx="8.906" cy="8.906" r="8.906" transform="translate(178.574 2.535)" fill="#ff6584" opacity="0.1"/>
    <circle id="Ellipse_4" data-name="Ellipse 4" cx="8.906" cy="8.906" r="8.906" transform="translate(280.734 12.772)" fill="#ff6584" opacity="0.1"/>
    <circle id="Ellipse_5" data-name="Ellipse 5" cx="14.926" cy="14.926" r="14.926" transform="translate(0 119.399)" fill="#ff6584" opacity="0.1"/>
    <path id="Path_1" data-name="Path 1" d="M313.473,136.384c-26.649-.992-52.029-10.232-76.265-20.345s-48.245-21.308-74.235-26.665c-16.73-3.446-35.86-3.936-49.34,5.7C100.641,104.361,96.45,120.35,94.21,135.2c-1.7,11.175-2.693,22.935,1.952,33.393,3.224,7.263,8.952,13.366,12.913,20.32,13.781,24.2,4.039,54.051-10.9,77.682-7,11.084-15.128,21.658-20.534,33.459s-7.918,25.323-3.2,37.363C79.131,349.355,90.3,358.307,102.4,364.59c24.578,12.8,53.528,16.47,81.779,18.529,62.512,4.6,125.363,2.606,188.044.613,23.194-.737,46.5-1.486,69.315-5.353,12.674-2.141,25.755-5.538,34.954-13.736,11.681-10.405,14.576-28.028,6.749-41.077-13.127-21.889-49.41-27.328-58.6-50.819-5.048-12.929.136-27.332,7.477-39.323,15.741-25.726,42.135-48.295,43.522-77.7.955-20.176-11.731-40.418-31.347-49.975-20.563-10.018-49.073-8.758-64.234,7.823C364.452,130.714,337,137.265,313.473,136.384Z" transform="translate(-63.081 -87.11)" fill="#ff6584" opacity="0.1"/>
    <path id="Path_2" data-name="Path 2" d="M872.34,447.984a2.433,2.433,0,0,0,.548,1.425,8.1,8.1,0,0,0,2.191,1.861V453.5s6.588,5.505,7.943,7.585a22.565,22.565,0,0,0,4.5,5.485,4.056,4.056,0,0,0,1.676.889h.111a1.741,1.741,0,0,1-.642.412,1.523,1.523,0,0,0,1.8,1.289,3,3,0,0,0,.889-.445l2.611-1.688a7.475,7.475,0,0,0,1.215-.91c.486-.49.824-1.1,1.3-1.606.824-.856,1.993-1.367,2.565-2.4a11.586,11.586,0,0,0,.642-2.108c.144-.461.354-.9.494-1.359a4.9,4.9,0,0,0,.169-.848c.091.078.185.156.284.231.2-.132.589.214.5.436s-.309.383-.383.613c-.165.527.486.918.758,1.4a3.725,3.725,0,0,1,.161,1.647c.029.548.28,1.206.358,1.82.189,1.433-.519,2.944,0,4.3a1.355,1.355,0,0,0-1.338,1.042,3.944,3.944,0,0,0,.053,1.832,2.52,2.52,0,0,0-1.235,2.3.564.564,0,0,1-.058.412.584.584,0,0,1-.235.136,2.322,2.322,0,0,0-1.433,2.158,1.071,1.071,0,0,1-.041.457,1.083,1.083,0,0,1-.338.346,2.685,2.685,0,0,0-1,2.1,1.523,1.523,0,0,0,.708,1.375h.029a7.412,7.412,0,0,0-2.471,4.69,19.255,19.255,0,0,0,.321,4.855h.148v.119a2.161,2.161,0,0,0,.235.7,10.032,10.032,0,0,1,.885,3.607,3.191,3.191,0,0,0,.123.91,4.591,4.591,0,0,0,.465.8,8.493,8.493,0,0,1,.861,3.006,23.773,23.773,0,0,0,1.05,3.94c.63,1.746,1.478,3.533,1.19,5.353a5.351,5.351,0,0,0-.165,1.322,3.865,3.865,0,0,0,.519,1.388,12.851,12.851,0,0,1,.576,1.285,1.038,1.038,0,0,0,.255.7c.049.136.091.276.132.412s.07.218.1.329a4.229,4.229,0,0,1,.128.56l-.025.432v.412a1.028,1.028,0,0,1-.2.366,1.483,1.483,0,0,1-.107.12l-.1.111a.742.742,0,0,0-.111.161h0a.771.771,0,0,0-.033.474.755.755,0,0,0,.041.185c.1.445.214.889.325,1.33.033.136.07.268.1.412.09.346.181.7.276,1.042v.045l.062.231.235.848c.049.169.1.334.144.5l.181.614q.21.716.432,1.433a149.976,149.976,0,0,1,4.019,14.646,1.577,1.577,0,0,0,.589.881,3.394,3.394,0,0,0,1.025.552c.095.729.329,1.618.358,2.059a9.992,9.992,0,0,1-.366,4.278.346.346,0,0,0-.313.1,12.778,12.778,0,0,0-.943,1l-1.931,2.059a3.187,3.187,0,0,0-.436.531,1.857,1.857,0,0,0-.185,1.519,2.058,2.058,0,0,0,.992,1.178,1.646,1.646,0,0,1,.313.177,1.875,1.875,0,0,0,.193.165.75.75,0,0,0,.412.078,14.7,14.7,0,0,0,3.241-.552,2.6,2.6,0,0,0,1.338-.63,2.5,2.5,0,0,0,.457-.889l.387-1.071a12.2,12.2,0,0,0,.589-2,4.117,4.117,0,0,0-.1-2.059.412.412,0,0,0-.1.169c.095-.6.185-1.2.28-1.8.029-.177.053-.358.078-.544.123,1.6-.111,3.216-.037,4.822a5.62,5.62,0,0,0-.161.9,5.452,5.452,0,0,0,1.911,3.961,1.956,1.956,0,0,0,.655.342,2.314,2.314,0,0,0,.675,0,8.606,8.606,0,0,0,2.569-.486,3.158,3.158,0,0,0,1.849-1.754,4.119,4.119,0,0,0,.185-1.268,4.87,4.87,0,0,0-.119-1.338,10.21,10.21,0,0,0-.675-1.561,14.889,14.889,0,0,1-.766-2.3l-.358-1.305c-.1-.371-.2-.741-.329-1.1a1.848,1.848,0,0,0-.457-.869c-.148-.115-.247-.124-.313-.058v-.14a14.787,14.787,0,0,0,.095-1.528,6.473,6.473,0,0,0-1.178-2.228,4.351,4.351,0,0,1-.469-1.178c-.025-.091-.041-.177-.058-.272a.956.956,0,0,1,.235-.152l.733.412c-.646-4.859-.3-9.952-2.191-14.473-.823-1.968-2.409-4.019-2.232-6.139a1.73,1.73,0,0,1,.194-2.759c.317-.173.708-.255.926-.548a1.5,1.5,0,0,0,.21-.531,84.225,84.225,0,0,1,4.068-12.208c.366-.869.745-1.729,1.128-2.59l1.276-2.9,1.557-3.533c.527-1.19,1.058-2.549.56-3.747a3.169,3.169,0,0,1-.5-1.429,8.97,8.97,0,0,1,.3-.943,2.345,2.345,0,0,0-.078-1.025c-.1-.445-.218-.889-.338-1.33a7.415,7.415,0,0,1,.992.189c.2-.334-.119-.721-.313-1.058a3.577,3.577,0,0,1-.358-1.47l-.412-4.155a7.364,7.364,0,0,1-.033-1.729c.082-.609.317-1.19.436-1.8a27.645,27.645,0,0,0,.074-3.558,15.946,15.946,0,0,1,.544-3.1c.037-.152.07-.3.107-.453a2.476,2.476,0,0,0,.6.1h.511a1.659,1.659,0,0,0,.226-.058h.049a2.488,2.488,0,0,0,.243-.095c-.1-.21-.189-.412-.276-.634-.037-.086-.07-.173-.1-.259s-.095-.243-.136-.366-.082-.226-.119-.338-.062-.189-.09-.284-.078-.259-.115-.412-.074-.272-.111-.412l.062-.128a3.61,3.61,0,0,0,.679.465c.824,1.421,1.569,2.882,2.256,4.356a1.382,1.382,0,0,0,.21-.531,2.552,2.552,0,0,0,.292.375,4.364,4.364,0,0,0,.959.7,2.47,2.47,0,0,0,1.136.412,2.12,2.12,0,0,0,1.453-.63,9.7,9.7,0,0,0,2.351-4.118,31,31,0,0,0,1.771-6.065c.338-2.236.193-4.558.823-6.728-.572-1.136-.935-2.392-1.577-3.492a15.62,15.62,0,0,1-1.087-2.038,7.042,7.042,0,0,1-.193-4.71.647.647,0,0,0-.754.041,1.576,1.576,0,0,0-.453.659,5.842,5.842,0,0,0-.449,2.767,1.1,1.1,0,0,1-.078.675.848.848,0,0,1-.733.309,6.314,6.314,0,0,1-1.7-.309,15.761,15.761,0,0,0-4.727-.461,3.741,3.741,0,0,0-.412-.412l-.177-.144-.181-.14-.09-.074a2.041,2.041,0,0,1-.173-.152,1.141,1.141,0,0,1-.412-.721.949.949,0,0,1,0-.107.809.809,0,0,1,0-.1,1.385,1.385,0,0,1,.095-.288,1.931,1.931,0,0,1,.09-.185l.045-.095c0-.029.029-.062.045-.091a2.733,2.733,0,0,0,.132-.346,2.524,2.524,0,0,0,.086-.358,2.7,2.7,0,0,0,.037-.367v-.556a3.754,3.754,0,0,0-.152-.733,4.055,4.055,0,0,0-.2-.527,5.815,5.815,0,0,0-.35-.651,9.943,9.943,0,0,0-.881-1.2l-.243-.284-.247-.28a9.808,9.808,0,0,1-.716-.877,3.405,3.405,0,0,1-.412-.733c-.033-.086-.062-.173-.086-.264a2.68,2.68,0,0,1-.074-.511V433a6.4,6.4,0,0,1,.033-.688c.033-.321.078-.646.124-.976.029-.218.062-.436.091-.655a2.212,2.212,0,0,1,.041-.325c.025-.218.05-.436.066-.655a6.277,6.277,0,0,0-.107-1.906,3.605,3.605,0,0,0-.193-.609,3.873,3.873,0,0,0-.412-.741,5.353,5.353,0,0,0-2.289-1.783,10.542,10.542,0,0,0-2.1-.671c-.288-.062-.572-.115-.856-.161a11.993,11.993,0,0,0-11.529,4.118,15.975,15.975,0,0,0-3.117,6.106,8.718,8.718,0,0,0,.984,6.658c.531.823,1.235,1.515,1.7,2.363.387.692.618,1.47,1.033,2.145a5.065,5.065,0,0,0,2.285,1.923l-.181.165a5.551,5.551,0,0,0-1.281.025c-.437.074-.861.243-1.3.3-.543.07-1.1-.037-1.647.033a5.2,5.2,0,0,0-2.615,1.5c-.9.786-1.87,1.7-1.939,2.882v.033l-.605.824a3.248,3.248,0,0,0-.379.6,10.055,10.055,0,0,0-.239,1.845,3.942,3.942,0,0,1-.478,1.1,24.727,24.727,0,0,1-2.059,3.072,5.205,5.205,0,0,1-1.281,1.268,2.305,2.305,0,0,1-1.334.379,8.554,8.554,0,0,1-1.952-1.305,12.587,12.587,0,0,1-1.725-2.145c-.98-1.412,2.059,2.812,1.079,1.4L878.2,444.464a11.943,11.943,0,0,1-.346-2.083c0-.268-.111-.622-.383-.63a.465.465,0,0,0-.309.148,1.788,1.788,0,0,0-.572,1.523,2.112,2.112,0,0,0-1.346.239.77.77,0,0,0-.169,1.1v.111a.585.585,0,0,0-.309.618,2.092,2.092,0,0,0-1.445.07c-.432.243-.6.955-.177,1.235A1.264,1.264,0,0,0,872.34,447.984Zm55.043,2.1a6.806,6.806,0,0,0,.77.2,12.287,12.287,0,0,1,2.388.823,1.309,1.309,0,0,1,.622.465,1.383,1.383,0,0,1-.074,1.169L930,455.676c-.173.461-.342.922-.556,1.363-.082.177-.177.354-.272.527q-.049-.148-.1-.284a24.1,24.1,0,0,1-.782-2.734c-.181-.8-.333-1.606-.461-2.413a11.8,11.8,0,0,0-.457-2.051Zm-1.136-2.3.082.058a.927.927,0,0,1,.284.2.441.441,0,0,1,0,.412Zm-1.964-2.829,1.3.189a1.708,1.708,0,0,1,.877.3.589.589,0,0,1,.12.824,1.968,1.968,0,0,1-.288.193.824.824,0,0,0-.309.852,9.226,9.226,0,0,0-.745-1.157,5.718,5.718,0,0,0-.869-.889C924.34,445.164,924.316,445.057,924.283,444.954Zm-12.505,93.6a4.662,4.662,0,0,0,.482,0,4.622,4.622,0,0,0-.078,1.169Z" transform="translate(-533.903 -285.075)" fill="url(#linear-gradient)"/>
    <path id="Path_3" data-name="Path 3" d="M951,425.967c2.261.362,4.772,1.235,5.637,3.352.651,1.6.148,3.4,0,5.122a3.887,3.887,0,0,0,.049,1.363,4.78,4.78,0,0,0,1.194,1.873,9.981,9.981,0,0,1,1.721,2.409,3.508,3.508,0,0,1,.115,2.882,2.1,2.1,0,0,0-.284.758c-.029.589.585.959,1.038,1.334,1.7,1.4,1.622,3.961,1.647,6.176a31.179,31.179,0,0,0,2.948,13.028,3.982,3.982,0,0,1-4.455-.581,15,15,0,0,0,1.013,2.915c-1.437.7-3.166-.449-3.883-1.869s-.823-3.08-1.318-4.587-1.437-2.837-1.849-4.356a4.186,4.186,0,0,0-.515-1.458,3.707,3.707,0,0,0-.906-.77,8.812,8.812,0,0,1-3.191-4.332,16.973,16.973,0,0,1-5.353.618,5.892,5.892,0,0,1-4.562-2.508c-.412-.675-.646-1.453-1.034-2.145-.474-.848-1.174-1.544-1.7-2.359a8.71,8.71,0,0,1-.98-6.65,15.856,15.856,0,0,1,3.117-6.1A12.061,12.061,0,0,1,951,425.967Z" transform="translate(-571.395 -286.334)" fill="#3a3768"/>
    <path id="Path_4" data-name="Path 4" d="M951,425.967c2.261.362,4.772,1.235,5.637,3.352.651,1.6.148,3.4,0,5.122a3.887,3.887,0,0,0,.049,1.363,4.78,4.78,0,0,0,1.194,1.873,9.981,9.981,0,0,1,1.721,2.409,3.508,3.508,0,0,1,.115,2.882,2.1,2.1,0,0,0-.284.758c-.029.589.585.959,1.038,1.334,1.7,1.4,1.622,3.961,1.647,6.176a31.179,31.179,0,0,0,2.948,13.028,3.982,3.982,0,0,1-4.455-.581,15,15,0,0,0,1.013,2.915c-1.437.7-3.166-.449-3.883-1.869s-.823-3.08-1.318-4.587-1.437-2.837-1.849-4.356a4.186,4.186,0,0,0-.515-1.458,3.707,3.707,0,0,0-.906-.77,8.812,8.812,0,0,1-3.191-4.332,16.973,16.973,0,0,1-5.353.618,5.892,5.892,0,0,1-4.562-2.508c-.412-.675-.646-1.453-1.034-2.145-.474-.848-1.174-1.544-1.7-2.359a8.71,8.71,0,0,1-.98-6.65,15.856,15.856,0,0,1,3.117-6.1A12.061,12.061,0,0,1,951,425.967Z" transform="translate(-571.395 -286.334)" fill="#3f3d56"/>
    <path id="Path_5" data-name="Path 5" d="M997.275,489.467c.128.823.28,1.614.465,2.417a23.13,23.13,0,0,0,.778,2.726,2.619,2.619,0,0,1,.243,1.235,2.31,2.31,0,0,1-.3.749c-1.034,1.832-2.425,3.6-2.545,5.7a3.068,3.068,0,0,1-.28,1.519q-1.2-2.569-2.639-5.015a15.442,15.442,0,0,1-2.409-5.386,10.211,10.211,0,0,1,.033-2.767,6.024,6.024,0,0,1,1-2.911c.679-.889,2.553-2.236,3.763-1.96C996.8,486.124,997.094,488.318,997.275,489.467Z" transform="translate(-603.416 -321.6)" fill="#f86d70"/>
    <path id="Path_6" data-name="Path 6" d="M891.286,489.868a12.267,12.267,0,0,1-3.8-2.125,12.4,12.4,0,0,1-1.725-2.141l-3.175-4.587a8.279,8.279,0,0,1-1.688-3.549,11.682,11.682,0,0,1-3.175-7.206c0-.272-.107-.622-.379-.63a.478.478,0,0,0-.313.148,1.791,1.791,0,0,0-.568,1.523,2.112,2.112,0,0,0-1.346.235c-.379.272-.478.943-.07,1.169a.581.581,0,0,0-.412.655,2.058,2.058,0,0,0-1.445.07c-.412.243-.6.951-.177,1.235a1.235,1.235,0,0,0-.823,1.206,2.422,2.422,0,0,0,.547,1.421c1.235,1.647,3.376,2.3,4.789,3.772a10.95,10.95,0,0,1,1.235,1.647l4.1,6.234a22.4,22.4,0,0,0,4.5,5.472,4.069,4.069,0,0,0,1.672.889,1.849,1.849,0,0,0,1.758-.486,2.869,2.869,0,0,0,.515-1.754C891.4,492.017,891.216,490.926,891.286,489.868Z" transform="translate(-533.814 -312.123)" fill="#a1616a"/>
    <path id="Path_7" data-name="Path 7" d="M950.87,723.941a3.567,3.567,0,0,0-.437.531,1.857,1.857,0,0,0-.185,1.519,2.058,2.058,0,0,0,.992,1.174,1.943,1.943,0,0,1,.313.181,1.863,1.863,0,0,0,.193.165.75.75,0,0,0,.412.078,14.989,14.989,0,0,0,3.24-.552,2.6,2.6,0,0,0,1.338-.63,2.662,2.662,0,0,0,.457-.885l.383-1.071a12.567,12.567,0,0,0,.593-1.993,4.15,4.15,0,0,0-.107-2.059.67.67,0,0,0-.144.412,4.559,4.559,0,0,1-.824,2,2.037,2.037,0,0,1-.321.412,2.1,2.1,0,0,1-.964.412,11.846,11.846,0,0,1-2.059.263.641.641,0,0,1-.28-.033.49.49,0,0,1-.235-.292,1.235,1.235,0,0,1,0-.824c.185-.519.7-.861.943-1.359.181-.366-.07-.77-.445-.461a11.429,11.429,0,0,0-.943,1Z" transform="translate(-579.682 -459.637)" fill="#3f3d56"/>
    <path id="Path_8" data-name="Path 8" d="M957.135,705.426c.111,1.725.185,3.586-.758,5.032-.338.523-.795.959-1.182,1.449a1.7,1.7,0,0,0-.412.873,1.336,1.336,0,0,0,1.161,1.289,3.842,3.842,0,0,0,1.865-.268,4.494,4.494,0,0,0,1.585-.745,4.566,4.566,0,0,0,1.2-2.915l.383-2.471a7.778,7.778,0,0,0,.14-1.8,8.011,8.011,0,0,0-.482-1.939l-.634-1.853a.873.873,0,0,0-.28-.461.823.823,0,0,0-.482-.086c-.605.029-2.133.251-2.425.889C956.551,703,957.094,704.776,957.135,705.426Z" transform="translate(-582.398 -448.534)" fill="#ee8e9e"/>
    <path id="Path_9" data-name="Path 9" d="M957.135,705.426c.111,1.725.185,3.586-.758,5.032-.338.523-.795.959-1.182,1.449a1.7,1.7,0,0,0-.412.873,1.336,1.336,0,0,0,1.161,1.289,3.842,3.842,0,0,0,1.865-.268,4.494,4.494,0,0,0,1.585-.745,4.566,4.566,0,0,0,1.2-2.915l.383-2.471a7.778,7.778,0,0,0,.14-1.8,8.011,8.011,0,0,0-.482-1.939l-.634-1.853a.873.873,0,0,0-.28-.461.823.823,0,0,0-.482-.086c-.605.029-2.133.251-2.425.889C956.551,703,957.094,704.776,957.135,705.426Z" transform="translate(-582.398 -448.534)" opacity="0.05"/>
    <path id="Path_10" data-name="Path 10" d="M927.547,580.682a.156.156,0,0,0,0,.045,2.061,2.061,0,0,0,.231.7,10.121,10.121,0,0,1,.889,3.6,3.054,3.054,0,0,0,.119.91,4.858,4.858,0,0,0,.465.8,8.473,8.473,0,0,1,.861,3,23.716,23.716,0,0,0,1.05,3.936c.63,1.742,1.478,3.529,1.19,5.353a5.359,5.359,0,0,0-.165,1.318,3.808,3.808,0,0,0,.515,1.388,12.914,12.914,0,0,1,.581,1.285c.169.436.35.951.49,1.433a1.948,1.948,0,0,1-.107,1.766,2.007,2.007,0,0,0-.317.387,1.029,1.029,0,0,0,0,.667q.334,1.408.716,2.812c.2.733.412,1.462.622,2.191,1.589,5.328,3.385,10.6,4.451,16.058.152.786,1.157,1.351,1.939,1.519a2.529,2.529,0,0,0,2.228-.6,1.376,1.376,0,0,0,.156-.152,4.682,4.682,0,0,0,.877-3.451c-.276-5.616-3.1-10.755-4.451-16.215a31.22,31.22,0,0,1-.873-6.016c-.317-6.782-.441-13.946,1.474-20.456.412-1.355.869-2.882.152-4.118a4.016,4.016,0,0,0-2.116-1.548,13.629,13.629,0,0,0-10.578.272,3.31,3.31,0,0,0,0,.412,4.171,4.171,0,0,1-.214,1.869A2.293,2.293,0,0,0,927.547,580.682Z" transform="translate(-566.377 -374.909)" fill="#3f3d56"/>
    <path id="Path_11" data-name="Path 11" d="M975.455,712.333l.358,1.305a14.585,14.585,0,0,0,.762,2.3,10.016,10.016,0,0,1,.679,1.556,5.036,5.036,0,0,1,.115,1.338,4.09,4.09,0,0,1-.185,1.264,3.158,3.158,0,0,1-1.849,1.754,8.73,8.73,0,0,1-2.565.482,2.06,2.06,0,0,1-.675,0,1.881,1.881,0,0,1-.655-.342,5.414,5.414,0,0,1-1.911-3.957,4.865,4.865,0,0,1,.2-1.009c.091-.124.992.383.605.823-.568.63,1.1.3,1.948.251a7.836,7.836,0,0,0,1.1-.181l1.371-.292c.449-.1.968-.251,1.124-.684s-.189-.943-.457-1.359a8.889,8.889,0,0,1-1.071-3.776c-.033-.259-.354-1.927.309-1.408a1.853,1.853,0,0,1,.461.869C975.253,711.6,975.352,711.963,975.455,712.333Z" transform="translate(-591.074 -453.695)" fill="#3f3d56"/>
    <path id="Path_12" data-name="Path 12" d="M941.9,642.821a1.88,1.88,0,0,0,.107-1.762c-.066-.222-.132-.441-.206-.659l5.39-1.82c0,.482.041.964.062,1.445a31.31,31.31,0,0,0,.873,6.02c1.346,5.456,4.175,10.594,4.451,16.207a4.5,4.5,0,0,1-1.029,3.611,2.549,2.549,0,0,1-2.232.593c-.778-.169-1.787-.733-1.939-1.519-1.066-5.456-2.882-10.73-4.451-16.058q-.741-2.47-1.338-5.007a1.047,1.047,0,0,1,0-.663A2.013,2.013,0,0,1,941.9,642.821Z" transform="translate(-574.603 -411.507)" opacity="0.05"/>
    <path id="Path_13" data-name="Path 13" d="M972.9,697.651a6.51,6.51,0,0,1,1.173,2.223,12.732,12.732,0,0,1-.095,1.528,4.792,4.792,0,0,0,.226,1.235q.782,2.841,1.812,5.608a1.536,1.536,0,0,1,.144.762,1.342,1.342,0,0,1-.893.889,9.439,9.439,0,0,1-4.118.453,2.154,2.154,0,0,1-1.161-.272,2.02,2.02,0,0,1-.655-1.618c-.095-1.75.2-3.508,0-5.25-.066-.634-.2-1.26-.3-1.886a5.53,5.53,0,0,1,.082-2.635,6.032,6.032,0,0,1,.984-1.647,5.156,5.156,0,0,1,1.371-1.367c.165-.1.63-.412.795-.21.087.095.049.35.062.469a4.68,4.68,0,0,0,.095.543A4.464,4.464,0,0,0,972.9,697.651Z" transform="translate(-590.713 -444.93)" fill="#ee8e9e"/>
    <path id="Path_14" data-name="Path 14" d="M938.006,582.856a1.491,1.491,0,0,1,.1,1.235c-.181.745-.478,1.458-.721,2.186a30.431,30.431,0,0,0-.931,3.973,11.628,11.628,0,0,0-.506,3.788,26.989,26.989,0,0,0-2.882,8.98c-.111.8,1.676,1.845,1.647,2.656-.066,1.614-1.355,1.742-.412,3.03.045.066-.358,1.507-.3,1.569.387.465.877.824,1.293,1.272a9.728,9.728,0,0,1,1.363,2c2.471,4.439,6.007,9.47,4.912,14.411a.881.881,0,0,0,.469.889,2.425,2.425,0,0,0,1.038.239h.173a4.681,4.681,0,0,0,.877-3.451c-.276-5.616-3.1-10.755-4.451-16.215a31.229,31.229,0,0,1-.873-6.016c-.317-6.782-.441-13.946,1.474-20.456.412-1.355.869-2.882.152-4.118a4.015,4.015,0,0,0-2.116-1.548,13.629,13.629,0,0,0-10.578.272,3.31,3.31,0,0,0,0,.412,4.169,4.169,0,0,1-.214,1.869,2.3,2.3,0,0,0-.21.824s-.1-1.091-.1-1.075c2.2.317,4.5,1.754,6.7,2.059a15.311,15.311,0,0,1,3.36.741A1.458,1.458,0,0,1,938.006,582.856Z" transform="translate(-566.18 -374.897)" opacity="0.05"/>
    <path id="Path_15" data-name="Path 15" d="M952.688,560.119c.3.943.56,1.894.782,2.853a2.332,2.332,0,0,1,.078,1.021,8.956,8.956,0,0,0-.3.943,3.154,3.154,0,0,0,.5,1.425c.5,1.2-.033,2.557-.556,3.747l-1.561,3.529-1.276,2.882c-.379.861-.758,1.721-1.124,2.59a84.2,84.2,0,0,0-4.068,12.192,1.5,1.5,0,0,1-.21.531c-.218.288-.609.371-.927.548a1.725,1.725,0,0,0-.189,2.755c-.181,2.121,1.408,4.167,2.228,6.131,1.882,4.529,1.54,9.6,2.191,14.453l-.733-.412c-.7.321-.679,1.318-1.054,1.989-.568,1.013-1.956,1.157-3.113,1.079a2.428,2.428,0,0,1-1.042-.239.877.877,0,0,1-.465-.889c1.091-4.941-2.47-9.985-4.916-14.411a9.592,9.592,0,0,0-1.363-1.993c-.412-.441-.9-.823-1.293-1.276a6.918,6.918,0,0,1-1.149-4.83,27.061,27.061,0,0,1,3.076-11.406,11.7,11.7,0,0,1,.511-3.788,29.745,29.745,0,0,1,.926-3.973c.243-.729.539-1.441.721-2.186a1.491,1.491,0,0,0-.1-1.235,1.449,1.449,0,0,0-.7-.449,15.5,15.5,0,0,0-3.36-.741l-7.568-1.087a19.249,19.249,0,0,1-.321-4.85,7.457,7.457,0,0,1,5.353-6.242,1.124,1.124,0,0,1,.984.062,39.459,39.459,0,0,1,20.04,1.281Z" transform="translate(-565.618 -364.166)" fill="#3f3d56"/>
    <path id="Path_16" data-name="Path 16" d="M958.279,458.37a3.707,3.707,0,0,0,.329,2.166,3.385,3.385,0,0,0,.861.951,6.379,6.379,0,0,0,2.5,1.235,2.657,2.657,0,0,1,1.491.655c.531.642.177,1.61-.276,2.31a5.908,5.908,0,0,1-3.269,2.705c-1.116.3-2.31.119-3.451.317-.823.144-1.606.486-2.421.679a7.144,7.144,0,0,1-6.588-1.832,9.406,9.406,0,0,0,3.1-3.319,4.718,4.718,0,0,0,.235-3.171c-.292-1.034-.947-2.059-.741-3.1a3.245,3.245,0,0,1,2.269-2.137,14.549,14.549,0,0,1,2.854-.576c.531-.074,3.92-.823,4.118-.453.119.21-.585,1.445-.671,1.717A6.61,6.61,0,0,0,958.279,458.37Z" transform="translate(-578.086 -303.341)" fill="#a1616a"/>
    <path id="Path_17" data-name="Path 17" d="M958.279,458.37a3.707,3.707,0,0,0,.329,2.166,3.385,3.385,0,0,0,.861.951,6.379,6.379,0,0,0,2.5,1.235,2.657,2.657,0,0,1,1.491.655c.531.642.177,1.61-.276,2.31a5.908,5.908,0,0,1-3.269,2.705c-1.116.3-2.31.119-3.451.317-.823.144-1.606.486-2.421.679a7.144,7.144,0,0,1-6.588-1.832,9.406,9.406,0,0,0,3.1-3.319,4.718,4.718,0,0,0,.235-3.171c-.292-1.034-.947-2.059-.741-3.1a3.245,3.245,0,0,1,2.269-2.137,14.549,14.549,0,0,1,2.854-.576c.531-.074,3.92-.823,4.118-.453.119.21-.585,1.445-.671,1.717A6.61,6.61,0,0,0,958.279,458.37Z" transform="translate(-578.086 -303.341)" opacity="0.05"/>
    <circle id="Ellipse_6" data-name="Ellipse 6" cx="6.872" cy="6.872" r="6.872" transform="translate(369.059 143.755)" fill="#a1616a"/>
    <path id="Path_18" data-name="Path 18" d="M947.112,477.191l-4.657.782a17.452,17.452,0,0,1-3.483.35,9.972,9.972,0,0,0-1.919,0c-.441.074-.861.243-1.305.3-.544.07-1.1-.033-1.647.037a5.191,5.191,0,0,0-2.615,1.5c-.9.782-1.869,1.7-1.935,2.882a.823.823,0,0,0,.054.412,1.207,1.207,0,0,0,.346.362,11.027,11.027,0,0,1,1.948,2.676,10.34,10.34,0,0,0,2.314,2.5c.206-.132.593.214.5.436s-.309.383-.383.614c-.165.527.486.914.753,1.4a3.783,3.783,0,0,1,.165,1.647c.029.552.276,1.206.358,1.824.185,1.429-.519,2.936,0,4.291a1.346,1.346,0,0,0-1.338,1.042,3.932,3.932,0,0,0,.054,1.828,2.516,2.516,0,0,0-1.235,2.3.412.412,0,0,1-.3.548,2.318,2.318,0,0,0-1.429,2.153,1.06,1.06,0,0,1-.041.457,1,1,0,0,1-.338.346,2.685,2.685,0,0,0-1,2.1,1.54,1.54,0,0,0,.708,1.375,12.811,12.811,0,0,0,3.129.931,28.116,28.116,0,0,0,3.031.535,27.2,27.2,0,0,0,2.837.086l6.234-.025c1.75,0,3.5,0,5.254-.132a14.9,14.9,0,0,1,4.879.115c.2-.334-.119-.721-.313-1.058a3.545,3.545,0,0,1-.358-1.466l-.391-4.155a7.3,7.3,0,0,1-.033-1.721c.086-.614.317-1.194.436-1.8a27.608,27.608,0,0,0,.074-3.553,15.856,15.856,0,0,1,.544-3.092l1.235-5.085a19.636,19.636,0,0,1,.609-2.549q1.421-3.665,2.985-7.263a.749.749,0,0,0-.054-.642l-1.029-1.849a11.8,11.8,0,0,0-.943-1.5,5.95,5.95,0,0,0-3.479-2.137,6.152,6.152,0,0,0-4.043.6c-.482.255-.926.572-1.416.823A5.8,5.8,0,0,1,947.112,477.191Z" transform="translate(-567.553 -315.204)" fill="#f86d70"/>
    <path id="Path_19" data-name="Path 19" d="M920.2,491.5l-1.622,2.166a2.756,2.756,0,0,0-.379.6,9.669,9.669,0,0,0-.243,1.836,3.83,3.83,0,0,1-.474,1.1,25.362,25.362,0,0,1-2.059,3.072,5.505,5.505,0,0,1-1.281,1.268,2.125,2.125,0,0,1-1.729.3,1.083,1.083,0,0,1,.568.515,6.283,6.283,0,0,1,.412,4.019,4.116,4.116,0,0,1-.453,1.318,1.977,1.977,0,0,1-1.033.894,1.523,1.523,0,0,0,1.8,1.289,3,3,0,0,0,.889-.445l2.606-1.688a6.928,6.928,0,0,0,1.215-.91c.486-.486.823-1.1,1.3-1.6.823-.852,1.993-1.363,2.565-2.392a11.259,11.259,0,0,0,.638-2.108c.144-.457.358-.893.494-1.355a6.052,6.052,0,0,0-.535-4.34A18.537,18.537,0,0,0,920.2,491.5Z" transform="translate(-557.18 -324.988)" fill="#f86d70"/>
    <path id="Path_20" data-name="Path 20" d="M945.848,433.271a9.009,9.009,0,0,1,2.417-2.516,8.249,8.249,0,0,1,4.36-1.845,4.637,4.637,0,0,1,1.96.321c.033-1.943.515-3.232,1.725-3.039,2.261.362,4.772,1.235,5.637,3.352.651,1.6.148,3.4,0,5.122a3.887,3.887,0,0,0,.049,1.363,4.779,4.779,0,0,0,1.194,1.873,9.98,9.98,0,0,1,1.721,2.409,3.508,3.508,0,0,1,.115,2.882,2.1,2.1,0,0,0-.284.758c-.029.589.585.959,1.038,1.334,1.7,1.4,1.622,3.961,1.647,6.176a31.178,31.178,0,0,0,2.948,13.028,3.981,3.981,0,0,1-4.455-.581,15,15,0,0,0,1.013,2.915c-1.437.7-3.166-.449-3.883-1.869s-.823-3.08-1.318-4.587-1.437-2.837-1.849-4.356a4.187,4.187,0,0,0-.515-1.458,3.708,3.708,0,0,0-.906-.77c-1.478-1.062.7-9.108.124-10.833-.861.185-2.442-3.965-3.343-8.186a4.262,4.262,0,0,1-1.956.2,2.355,2.355,0,0,0-.7-.049,1.861,1.861,0,0,0-.609.247,15.04,15.04,0,0,1-2.079,1.071,11.956,11.956,0,0,1-4.719.412,4.678,4.678,0,0,1,.667-3.372Z" transform="translate(-576.706 -286.56)" fill="#3a3768"/>
    <path id="Path_21" data-name="Path 21" d="M945.848,433.271a9.009,9.009,0,0,1,2.417-2.516,8.249,8.249,0,0,1,4.36-1.845,4.637,4.637,0,0,1,1.96.321c.033-1.943.515-3.232,1.725-3.039,2.261.362,4.772,1.235,5.637,3.352.651,1.6.148,3.4,0,5.122a3.887,3.887,0,0,0,.049,1.363,4.779,4.779,0,0,0,1.194,1.873,9.98,9.98,0,0,1,1.721,2.409,3.508,3.508,0,0,1,.115,2.882,2.1,2.1,0,0,0-.284.758c-.029.589.585.959,1.038,1.334,1.7,1.4,1.622,3.961,1.647,6.176a31.178,31.178,0,0,0,2.948,13.028,3.981,3.981,0,0,1-4.455-.581,15,15,0,0,0,1.013,2.915c-1.437.7-3.166-.449-3.883-1.869s-.823-3.08-1.318-4.587-1.437-2.837-1.849-4.356a4.187,4.187,0,0,0-.515-1.458,3.708,3.708,0,0,0-.906-.77c-1.478-1.062.7-9.108.124-10.833-.861.185-2.442-3.965-3.343-8.186a4.262,4.262,0,0,1-1.956.2,2.355,2.355,0,0,0-.7-.049,1.861,1.861,0,0,0-.609.247,15.04,15.04,0,0,1-2.079,1.071,11.956,11.956,0,0,1-4.719.412,4.678,4.678,0,0,1,.667-3.372Z" transform="translate(-576.706 -286.56)" fill="#3f3d56"/>
    <g id="Group_1" data-name="Group 1" transform="translate(369.718 139.601)" opacity="0.1">
      <path id="Path_22" data-name="Path 22" d="M984.651,464.459a31.243,31.243,0,0,1-2.948-13.028c0-2.2.062-4.76-1.647-6.176-.453-.375-1.066-.745-1.042-1.334a2.1,2.1,0,0,1,.288-.758,3.525,3.525,0,0,0-.115-2.882,9.982,9.982,0,0,0-1.721-2.409,4.79,4.79,0,0,1-1.2-1.874,4.094,4.094,0,0,1-.049-1.363c.169-1.721.675-3.52,0-5.122-.824-2.059-3.216-2.932-5.419-3.315a1.235,1.235,0,0,1,.593-.037c2.26.362,4.772,1.235,5.637,3.352.651,1.6.148,3.4,0,5.122a3.885,3.885,0,0,0,.049,1.363,4.78,4.78,0,0,0,1.194,1.874,9.982,9.982,0,0,1,1.721,2.409,3.508,3.508,0,0,1,.115,2.882,2.1,2.1,0,0,0-.284.758c-.029.589.585.959,1.038,1.334,1.7,1.4,1.622,3.961,1.647,6.176a31.179,31.179,0,0,0,2.948,13.028,3.85,3.85,0,0,1-2.182.412A3.727,3.727,0,0,0,984.651,464.459Z" transform="translate(-961.54 -426.141)"/>
      <path id="Path_23" data-name="Path 23" d="M994.643,520.705a14.726,14.726,0,0,1-1.013-2.915,3.759,3.759,0,0,0,.976.646,15.33,15.33,0,0,0,.823,2.269,2.157,2.157,0,0,1-1.33.169,2.1,2.1,0,0,0,.543-.169Z" transform="translate(-974.969 -480.053)"/>
      <path id="Path_24" data-name="Path 24" d="M964.3,433.15a4.743,4.743,0,0,0-1.309-.309h.156a4.6,4.6,0,0,1,1.161.086C964.3,432.993,964.3,433.067,964.3,433.15Z" transform="translate(-956.945 -430.079)"/>
      <path id="Path_25" data-name="Path 25" d="M950.986,448.706a15.082,15.082,0,0,0,2.083-1.071,1.829,1.829,0,0,1,.609-.247,2.247,2.247,0,0,1,.642.037,2.574,2.574,0,0,0-.445.21,15.039,15.039,0,0,1-2.079,1.071,9.381,9.381,0,0,1-3.488.453A8.262,8.262,0,0,0,950.986,448.706Z" transform="translate(-948.31 -438.635)"/>
      <path id="Path_26" data-name="Path 26" d="M966.394,447l.037.185a4.034,4.034,0,0,1-1.021.029A4.528,4.528,0,0,0,966.394,447Z" transform="translate(-958.369 -438.411)"/>
    </g>
    <path id="Path_27" data-name="Path 27" d="M995.94,489.121a2.512,2.512,0,0,0,.675,2.009,4.477,4.477,0,0,0,.955.7,2.594,2.594,0,0,0,1.136.412,2.145,2.145,0,0,0,1.453-.634,9.674,9.674,0,0,0,2.347-4.1,30.734,30.734,0,0,0,1.775-6.057c.338-2.236.193-4.554.823-6.724-.568-1.136-.931-2.388-1.577-3.483a16.412,16.412,0,0,1-1.087-2.038,7.041,7.041,0,0,1-.194-4.7.634.634,0,0,0-.749.037,1.576,1.576,0,0,0-.453.659,5.835,5.835,0,0,0-.449,2.763,1.1,1.1,0,0,1-.078.675.848.848,0,0,1-.733.309,6.5,6.5,0,0,1-1.7-.3,15.723,15.723,0,0,0-5.225-.432,2.47,2.47,0,0,0-1.021.247.947.947,0,0,0-.523.852l4.175.614a1.725,1.725,0,0,1,.881.3.6.6,0,0,1,.119.824,1.648,1.648,0,0,1-.288.189.861.861,0,0,0,.033,1.375.882.882,0,0,1,.284.2c.173.231-.054.531-.128.823a1.021,1.021,0,0,0,.5,1.042,3.672,3.672,0,0,0,1.165.391,12.282,12.282,0,0,1,2.388.824,1.31,1.31,0,0,1,.622.465,1.4,1.4,0,0,1-.074,1.169l-1.087,2.932c-.173.461-.342.918-.556,1.363-.276.572-.618,1.112-.9,1.684a16.821,16.821,0,0,0-.679,1.647C997.22,486.642,996.129,487.535,995.94,489.121Z" transform="translate(-603.892 -309.049)" fill="#a1616a"/>
    <path id="Path_28" data-name="Path 28" d="M492.3,249.17V387.276a45.745,45.745,0,0,0-14.259-2.2c-20.534,0-37.21,14.531-37.21,35.065s16.676,34.9,37.21,34.9,37.313-15.12,37.313-37.058V322.083H623.645v65.193a45.724,45.724,0,0,0-14.259-2.2c-20.534,0-37.21,14.531-37.21,35.065s16.676,34.9,37.21,34.9,37.313-15.12,37.313-37.058V249.17Zm131.35,51.469H515.357V272.228H623.649Z" transform="translate(-280.069 -182.438)" fill="#ff6584"/>
    <path id="Path_29" data-name="Path 29" d="M224.71,212.17v92.686a35.061,35.061,0,1,0,17.541,30.305V247.293h35.164V212.17Z" transform="translate(-122.006 -160.673)" fill="#ff6584"/>
    <path id="Path_30" data-name="Path 30" d="M236.84,725.036a22.375,22.375,0,0,0-6.444-2.281,29.473,29.473,0,0,0,4.822-1.083c4.188-1.326,6.3-3.1,4.715-3.973s-6.267-.5-10.454.824a16.138,16.138,0,0,0-4.015,1.783,8.045,8.045,0,0,0-3.446-2.993c-3.706-2.059-8.721-3.076-11.167-2.3s-1.412,3.055,2.31,5.1a22.291,22.291,0,0,0,5.765,2.145,33.9,33.9,0,0,0-3.973.7c-4.558,1.1-7.193,2.746-5.888,3.706s6.065.823,10.623-.264a19.852,19.852,0,0,0,4.776-1.688c.375.947,1.573,2.059,3.508,3.133,3.706,2.059,8.721,3.076,11.167,2.3S240.545,727.078,236.84,725.036Z" transform="translate(-143.536 -456.314)" fill="#ff6584"/>
    <path id="Path_31" data-name="Path 31" d="M321.225,659.536a10.913,10.913,0,0,0-3.125-1.108,14.706,14.706,0,0,0,2.339-.523c2.034-.646,3.059-1.507,2.289-1.931s-3.043-.243-5.077.412a8.1,8.1,0,0,0-1.948.865,3.923,3.923,0,0,0-1.672-1.453c-1.808-.992-4.237-1.491-5.423-1.116s-.684,1.486,1.12,2.471a10.79,10.79,0,0,0,2.808,1.038,16.865,16.865,0,0,0-1.931.346c-2.211.527-3.492,1.33-2.858,1.791s2.944.412,5.155-.128a9.789,9.789,0,0,0,2.322-.823,3.7,3.7,0,0,0,1.7,1.519c1.808.992,4.233,1.495,5.423,1.12S323.032,660.529,321.225,659.536Z" transform="translate(-201.688 -420.905)" fill="#ff6584"/>
    <path id="Path_32" data-name="Path 32" d="M157.105,588.1a6.846,6.846,0,0,0-1.968-.692,8.573,8.573,0,0,0,1.474-.329c1.272-.412,1.915-.943,1.433-1.206a5.512,5.512,0,0,0-3.175.251,5.057,5.057,0,0,0-1.235.539,2.409,2.409,0,0,0-1.046-.906,5.327,5.327,0,0,0-3.393-.7c-.745.235-.412.926.7,1.548a6.707,6.707,0,0,0,1.758.651,10.15,10.15,0,0,0-1.211.218c-1.383.329-2.186.823-1.791,1.12s1.845.251,3.228-.078a6.148,6.148,0,0,0,1.454-.515,2.294,2.294,0,0,0,1.062.951,5.336,5.336,0,0,0,3.393.7C158.534,589.419,158.233,588.723,157.105,588.1Z" transform="translate(-108.139 -379.977)" fill="#ff6584"/>
    <path id="Path_33" data-name="Path 33" d="M283.3,212.17v29.358H248.14V329.4a35.11,35.11,0,0,1-56.9,27.542A35.114,35.114,0,0,0,253.9,335.161V247.293h35.164V212.17Z" transform="translate(-133.249 -160.673)" opacity="0.1"/>
    <path id="Path_34" data-name="Path 34" d="M173.87,223.257l.119.9,3.891.552s.317-.239.824-.564a12.094,12.094,0,0,1,3.788-1.762c2.038-.412,8.519-3.315,6.432-3.5s-1.873.243-1.873.243a3.437,3.437,0,0,0-4.678-.194c-1.8,1.569-5.765,3.257-7.572,3.978C174.224,223.13,173.87,223.257,173.87,223.257Z" transform="translate(-123.031 -164.134)" fill="#efb7b9"/>
    <path id="Path_35" data-name="Path 35" d="M203.406,204.931a6.588,6.588,0,0,1,1.865-.478,2.269,2.269,0,0,1,1.775.593c.251.259.412.593.659.856,1.186,1.268,3.488.321,4.916,1.305a4.883,4.883,0,0,1,1.462,2.783c.313,1.025.881,2.149,1.927,2.368a5.715,5.715,0,0,0,1.519-.058,1.5,1.5,0,0,1,1.367.5c.486.737-.185,1.968.519,2.5.63.465,1.771-.185,2.211.461a.964.964,0,0,1-.152,1.071,7.437,7.437,0,0,0-.716.9,1.359,1.359,0,0,0,1.338,1.985c.445-.045.918-.3,1.305-.078a.922.922,0,0,1,.412.729,1.915,1.915,0,0,1-1.721,2.013,4.257,4.257,0,0,1-2.129-.708,2.673,2.673,0,0,0-2.17-.35,3.352,3.352,0,0,0-.873.614,9.557,9.557,0,0,1-2.685,1.589,3.308,3.308,0,0,1-2.676.119c-.926-.474-1.4-1.626-2.384-1.976s-2.1.3-3.039.861-2.195,1.021-3.043.338c-.914-.737-.634-2.215-1.19-3.249a3.191,3.191,0,0,0-.894-.984c-.626-.482-1.338-.844-1.968-1.318a3.294,3.294,0,0,1-1.342-1.886,3.82,3.82,0,0,1,.766-2.676,7.417,7.417,0,0,0,1.26-2.532c.124-.7,0-1.429.161-2.121a2.615,2.615,0,0,1,1.7-1.791c.461-.156.544-.115.778-.523A1.647,1.647,0,0,1,203.406,204.931Z" transform="translate(-137.023 -156.126)" fill="#3f3d56"/>
    <g id="Group_2" data-name="Group 2" transform="translate(60.638 56.961)" opacity="0.1">
      <path id="Path_36" data-name="Path 36" d="M249.472,225.44a3.5,3.5,0,0,1,.074,1.235A3.339,3.339,0,0,1,249.472,225.44Z" transform="translate(-228.126 -225.44)"/>
      <path id="Path_37" data-name="Path 37" d="M253.445,234.025a1.346,1.346,0,0,0-.14.453,1.392,1.392,0,0,1,.049-1.153,7.325,7.325,0,0,1,.716-.894,1.52,1.52,0,0,0,.206-.412l.033.037a.964.964,0,0,1-.148,1.066,7.357,7.357,0,0,0-.716.9Z" transform="translate(-230.336 -229.311)"/>
      <path id="Path_38" data-name="Path 38" d="M198.966,231.81c.63.478,1.338.824,1.964,1.322a3.137,3.137,0,0,1,.893.984c.556,1.034.276,2.512,1.19,3.249.848.684,2.108.222,3.047-.338s2.009-1.235,3.035-.861,1.458,1.5,2.388,1.976a3.359,3.359,0,0,0,2.676-.119,9.594,9.594,0,0,0,2.681-1.589,3.541,3.541,0,0,1,.873-.618,2.666,2.666,0,0,1,2.174.354,4.177,4.177,0,0,0,2.125.708,1.935,1.935,0,0,0,1.709-1.692,1.235,1.235,0,0,1,.091.362,1.911,1.911,0,0,1-1.709,2.026,4.278,4.278,0,0,1-2.125-.7,2.711,2.711,0,0,0-2.174-.354,3.635,3.635,0,0,0-.873.614,9.608,9.608,0,0,1-2.681,1.593,3.342,3.342,0,0,1-2.676.119c-.931-.474-1.4-1.626-2.388-1.976s-2.1.3-3.035.861-2.2,1.021-3.047.334c-.914-.737-.634-2.211-1.19-3.249a3.171,3.171,0,0,0-.894-.98c-.622-.482-1.334-.844-1.964-1.322a3.294,3.294,0,0,1-1.346-1.886,2.23,2.23,0,0,1-.041-.494A3.442,3.442,0,0,0,198.966,231.81Z" transform="translate(-197.668 -228.199)"/>
    </g>
    <path id="Path_39" data-name="Path 39" d="M202.852,286.075l-1.412.3a2.416,2.416,0,0,0,3.537.786C207.122,285.659,202.852,286.075,202.852,286.075Z" transform="translate(-139.249 -204.116)" fill="#4c4981"/>
    <path id="Path_40" data-name="Path 40" d="M202.852,286.075l-1.412.3a2.416,2.416,0,0,0,3.537.786C207.122,285.659,202.852,286.075,202.852,286.075Z" transform="translate(-139.249 -204.116)" opacity="0.1"/>
    <path id="Path_41" data-name="Path 41" d="M279.32,333.223s1.96,1.013,3.784,2.186a10.2,10.2,0,0,1,2.952,2.446c.972,1.647,5.695,3.434,5.695,3.434l4.686,3.566a6.7,6.7,0,0,1,2.619,2.31c.132.181.21.3.21.3l1.878-.243.988-1.285s.251-2.833-1.7-2.8a2.684,2.684,0,0,1-1.1-.284A23.215,23.215,0,0,1,294.3,339s-4.99-6.234-6.485-6.44a2.467,2.467,0,0,1-.469-.119,15.307,15.307,0,0,1-3.706-2.491Z" transform="translate(-185.061 -229.957)" fill="#efb7b9"/>
    <path id="Path_42" data-name="Path 42" d="M232.171,371.287a44.671,44.671,0,0,0,3.5,9.911,15.741,15.741,0,0,1,1.379,4.439l.268,2.059a2.388,2.388,0,0,0,.3.8,4.362,4.362,0,0,0,.264.412l3.759-1.157s-.218-.865-.548-1.857a8.381,8.381,0,0,0-1.293-2.7c-.918-.9-1.054-4.085-1.054-4.085s-.766-6.119-1-6.889a10.623,10.623,0,0,1-.412-2.256c-.037-.412-.062-.881-.066-1.412a28.862,28.862,0,0,0-.593-4.529l-4.385.795-.115,4.9A3.269,3.269,0,0,0,232.171,371.287Z" transform="translate(-157.268 -249.998)" fill="#efb7b9"/>
    <path id="Path_43" data-name="Path 43" d="M327.25,365.6c.132.181.21.3.21.3l1.878-.243.988-1.285s.251-2.833-1.7-2.8a2.685,2.685,0,0,1-1.1-.284c-.161.848.791,1.552.791,1.552s.412.288.3,1.618C328.555,365.356,327.752,365.55,327.25,365.6Z" transform="translate(-213.256 -248.386)" opacity="0.1"/>
    <path id="Path_44" data-name="Path 44" d="M326.75,360.333c.124.457,1.309,1.128,2.133,1.548.412.206.721.35.782.383.189.095,1.186-1.013,1.322-1.906s2.512-3.673,2.512-3.673a9.964,9.964,0,0,0,.881-3.479c.091-1.215-.412-1.314-1.009-1.038a3.991,3.991,0,0,0-1.128.885,3.014,3.014,0,0,1-1.462.758,7.153,7.153,0,0,0-2.1.9c-.576.371-1.136.824-1.235,1.235-.218.877.778,1.618.778,1.618s.412.288.3,1.618S326.738,360.292,326.75,360.333Z" transform="translate(-212.962 -242.951)" fill="#444053"/>
    <path id="Path_45" data-name="Path 45" d="M331.93,361.881c.412.206.721.35.782.383.189.095,1.186-1.013,1.322-1.906s2.512-3.673,2.512-3.673a9.964,9.964,0,0,0,.881-3.479c.091-1.215-.412-1.314-1.009-1.038a13.711,13.711,0,0,1-.823,3.813C334.993,357.142,332.585,360.872,331.93,361.881Z" transform="translate(-216.009 -242.951)" opacity="0.1"/>
    <path id="Path_46" data-name="Path 46" d="M245.351,419.6l-.037.07a4.353,4.353,0,0,0,.264.412l3.759-1.157s-.218-.865-.548-1.857c-1.486-.412-3.619,2.186-3.619,2.186Z" transform="translate(-164.973 -281.177)" opacity="0.1"/>
    <path id="Path_47" data-name="Path 47" d="M244.845,422.654s3.138,1.1,4.529.931c1.075-.128,1.12-.626,1.046-1.647-.025-.329-.058-.708-.078-1.145-.07-1.812-.8-2.178-.8-2.178-1.194-3.129-4.632,1.071-4.632,1.071l.177.346a3.788,3.788,0,0,0-.35,1.709A4.991,4.991,0,0,0,244.845,422.654Z" transform="translate(-164.717 -281.431)" fill="#444053"/>
    <path id="Path_48" data-name="Path 48" d="M244.847,428.774s3.138,1.1,4.529.931c1.075-.128,1.12-.626,1.046-1.647a3.323,3.323,0,0,1-2.557.733,10.06,10.06,0,0,1-3.125-.931A4.992,4.992,0,0,0,244.847,428.774Z" transform="translate(-164.72 -287.552)" opacity="0.1"/>
    <path id="Path_49" data-name="Path 49" d="M207.23,237.305l1.235,5.353.251,1.1,2.269.288,2.339.3,2.545-.922a8.592,8.592,0,0,0,.124-4.237,2.685,2.685,0,0,0-1.178-1.552,2.614,2.614,0,0,1-.49-.379,2.149,2.149,0,0,1-.412-.589,2.433,2.433,0,0,1-.218-.852,6.086,6.086,0,0,1,.786-3.026s-5.394-1.841-4.974-.651c.276.77-.486,2.112-1.054,2.961-.309.457-.56.774-.56.774Z" transform="translate(-142.655 -172.183)" fill="#efb7b9"/>
    <circle id="Ellipse_7" data-name="Ellipse 7" cx="4.686" cy="4.686" r="4.686" transform="translate(64.757 53.688)" opacity="0.1"/>
    <circle id="Ellipse_8" data-name="Ellipse 8" cx="4.686" cy="4.686" r="4.686" transform="translate(64.736 53.515)" fill="#efb7b9"/>
    <path id="Path_50" data-name="Path 50" d="M207.3,262.161a11.468,11.468,0,0,0,1.235,2.66l6.543,1.606,4.673-4.892V261.5c-.144-.457-1.927-6.226-.638-7.646,1.351-1.478.824-5.649.824-5.649s-2.335-2.685-2.808-3.335-3.5-1.161-3.5-1.161c.152.206.292.412.412.589a5.765,5.765,0,0,1,.745,1.581,2.363,2.363,0,0,1-.062,1.717,1.885,1.885,0,0,0-.161.441c-.511,2.236-2.841,1.923-3.768,1.7-.239-.058-.387-.107-.387-.107l-2.228.07-1.4.045s.638,11.027.486,11.9A1.409,1.409,0,0,0,207.3,262.161Z" transform="translate(-142.39 -179.226)" fill="#f86d70"/>
    <path id="Path_51" data-name="Path 51" d="M206.829,258.838l4.056-.531h-.074c-.239-.058-.383-.107-.383-.107l-2.232.07-1.4.045S206.808,258.5,206.829,258.838Z" transform="translate(-142.402 -187.75)" fill="#925978"/>
    <path id="Path_52" data-name="Path 52" d="M167.52,208.6l1.758.428,2.771-.362.721-.754Z" transform="translate(-98.543 -122.299)" fill="#925978"/>
    <path id="Path_53" data-name="Path 53" d="M174.63,211.108l.795.194.325-.342Z" transform="translate(-102.725 -124.093)" fill="#925978"/>
    <path id="Path_54" data-name="Path 54" d="M207.315,259.908c1.046.107,2.009.161,2.009.161l5.39-.2v-5.629a7.984,7.984,0,0,0-2.174-1.433c-.939-.325-2.059-1.322-1.836-3.949a3.766,3.766,0,0,1,.045-.469,6.043,6.043,0,0,0,.049-.885,4.735,4.735,0,0,0-1.495-3.467.712.712,0,0,0-.078-.07l-.877-4.085a.873.873,0,0,0-.177.025c-.309.457-.56.774-.56.774l-.646,1.416,1.235,5.353-1.4.045s.638,11.027.486,11.9A1.408,1.408,0,0,0,207.315,259.908Z" transform="translate(-142.402 -176.973)" opacity="0.1"/>
    <path id="Path_55" data-name="Path 55" d="M201.112,260.123l5.39-.2v-5.633a8.033,8.033,0,0,0-2.17-1.433c-.992-.346-2.174-1.433-1.791-4.418a4.888,4.888,0,0,0-1.433-4.377l-.082-.07-.877-4.085a1.9,1.9,0,0,0-1.388.795,3.48,3.48,0,0,1-.325.478.824.824,0,0,1-1.083.321c-.568-.251-3.014-1.285-3.562-.272s-.651,7.045-.651,7.045a4.607,4.607,0,0,1,1.585,2.606c.375,1.725,1,1.766,1,1.766l.675,4.941s.614,1.075.156,1.668" transform="translate(-134.366 -176.991)" fill="#444053"/>
    <path id="Path_56" data-name="Path 56" d="M206,241.212l.918,2.751,1.754.152-.082-.07-.877-4.085a1.9,1.9,0,0,0-1.388.795,3.477,3.477,0,0,1-.325.457Z" transform="translate(-141.931 -177.02)" fill="#444053"/>
    <path id="Path_57" data-name="Path 57" d="M173.87,230.2l.119.9,3.891.552s.317-.239.824-.564c-.412-.095-2.347-.515-3.36-.824-.375-.115-.622-.214-.63-.28s.025-.078.086-.128C174.224,230.068,173.87,230.2,173.87,230.2Z" transform="translate(-123.031 -171.073)" opacity="0.1"/>
    <path id="Path_58" data-name="Path 58" d="M161.281,234.236s4.41,3.348,7.144,3.887c0,0,3.846,1.136,5.353,2.471l1.647-6.349-1.009-.7a3.515,3.515,0,0,1-2.244.5c-1.038-.247-2.186-.412-2.186-.412a16.912,16.912,0,0,0-2.8-.766c-.741-.062-.441-1.025.3-1.536a1.609,1.609,0,0,1,.309-.173.955.955,0,0,0,1.235.28,2.82,2.82,0,0,0,.725-.675h0a9.4,9.4,0,0,0,.824-1.235s-2.3-.494-3.446-.848c-.375-.115-.622-.214-.63-.28-.033-.264,2.059-1.1,2.059-1.1s-1.787-.865-2.512-.235c0,0,.469.35.091.7s-4.941,3.858-4.941,3.858S158.95,232.733,161.281,234.236Z" transform="translate(-115.004 -169.304)" fill="#444053"/>
    <path id="Path_59" data-name="Path 59" d="M172,233.9l2.442.35a1.611,1.611,0,0,1,.309-.173.955.955,0,0,0,1.235.28,2.82,2.82,0,0,0,.725-.675h0a9.65,9.65,0,0,0,.667-1.042s-2.3-.494-3.446-.848Z" transform="translate(-121.931 -172.214)" opacity="0.1"/>
    <path id="Path_60" data-name="Path 60" d="M172.34,233.412l2.6.375a.955.955,0,0,0,1.235.28,6.008,6.008,0,0,0,1.548-1.919s-2.3-.494-3.446-.848Z" transform="translate(-122.131 -171.926)" fill="#444053"/>
    <path id="Path_61" data-name="Path 61" d="M283.648,330l-4.328,3.273s1.96,1.013,3.784,2.186c1.593-1.079,3.1-2.059,4.237-2.969A15.779,15.779,0,0,1,283.648,330Z" transform="translate(-185.061 -229.986)" opacity="0.1"/>
    <path id="Path_62" data-name="Path 62" d="M232.171,371.287a14.664,14.664,0,0,0,3.171-.758s.8-.173,1.985-.568c-.037-.412-.062-.881-.066-1.412a28.858,28.858,0,0,0-.593-4.529l-4.385.795-.115,4.9a3.269,3.269,0,0,0,0,1.569Z" transform="translate(-157.268 -249.998)" opacity="0.1"/>
    <path id="Path_63" data-name="Path 63" d="M209.6,304.514c.881,1.305,3.294,6.856,3.294,6.856a23.606,23.606,0,0,0,1.836,2.829c.959,1.206,1.622,3.92,2.351,6.09s-.214,1.762-.111,2.882,4.225-.329,4.225-.329,8.42-1.853,10.994-7,12.851-9.808,14.93-12.7-.589-1.7-.486-3.269a4.436,4.436,0,0,0-1.083-2.882s-3.879-1.1-4.509-1.857a27.09,27.09,0,0,0-3.726-2.668,20.728,20.728,0,0,1-3.294-1.7,21.3,21.3,0,0,0-4.892-2.059c-1.058-.251-2.1-1.771-2.1-1.771s-.655.086-1.622-.852-5.028-1.746-5.028-1.746c-6.93,5.106-11.719,4.393-11.719,4.393l-.111.964C204.865,294.488,208.715,303.209,209.6,304.514Z" transform="translate(-142.509 -203.121)" fill="#444053"/>
    <path id="Path_64" data-name="Path 64" d="M210.79,289.714s5.991,1.972,11.834-5.324c-6.934,5.081-11.723,4.369-11.723,4.369Z" transform="translate(-144.749 -203.156)" opacity="0.1"/>
    <path id="Path_65" data-name="Path 65" d="M235.83,305.588s8.046,11.616,8.544,12.04S236.254,305.444,235.83,305.588Z" transform="translate(-159.478 -215.625)" opacity="0.1"/>
    <path id="Path_66" data-name="Path 66" d="M226.8,303.43s5.571,8.647,5.46,9.816C232.26,313.246,226.882,304.933,226.8,303.43Z" transform="translate(-154.167 -214.356)" opacity="0.1"/>
    <path id="Path_67" data-name="Path 67" d="M218.179,309.2s1.029,4.838-.519,7.58Z" transform="translate(-148.79 -217.75)" opacity="0.1"/>
    <path id="Path_68" data-name="Path 68" d="M212.955,309.88s-.066,4.188-.535,5.048Z" transform="translate(-145.708 -218.15)" opacity="0.1"/>
    <path id="Path_69" data-name="Path 69" d="M196.46,213.7l7.4,2.9-2.709.354Z" transform="translate(-115.567 -125.705)" opacity="0.1"/>
    <path id="Path_70" data-name="Path 70" d="M209.292,218.053c.371.247.679.638,1.12.7a1.762,1.762,0,0,0,.91-.222,3.347,3.347,0,0,1,2.335-.317c1.087.358,1.684,1.61,2.767,1.981a1.972,1.972,0,0,0,1.038.058,2.009,2.009,0,0,0,.585-.239,1.882,1.882,0,0,0,.824-1.169,2.421,2.421,0,0,0-.824-2.281,5.052,5.052,0,0,0-2.3-1.046,22.788,22.788,0,0,0-6.654-.152.967.967,0,0,0-.519.136,3.091,3.091,0,0,0-.795,1.943C207.942,218,209.231,217.584,209.292,218.053Z" transform="translate(-142.967 -162.451)" opacity="0.1"/>
    <path id="Path_71" data-name="Path 71" d="M209.242,217.63c.371.243.675.638,1.12.7a1.742,1.742,0,0,0,.906-.226,3.35,3.35,0,0,1,2.335-.317c1.087.362,1.684,1.614,2.767,1.981a1.935,1.935,0,0,0,1.038.058,1.894,1.894,0,0,0,.585-.235,1.927,1.927,0,0,0,.848-1.169,2.434,2.434,0,0,0-.844-2.285,5.069,5.069,0,0,0-2.3-1.042,22.785,22.785,0,0,0-6.654-.156.98.98,0,0,0-.519.14,3.1,3.1,0,0,0-.795,1.944C207.892,217.589,209.181,217.153,209.242,217.63Z" transform="translate(-142.938 -162.201)" fill="#3f3d56"/>
    <path id="Path_72" data-name="Path 72" d="M281,222.615l.708,2.862.918-.556,4.99-3.01s3.78-.14,4.072-3.179-4.2-.029-4.439.2-.782.638-.782.638l-4.645,2.594Z" transform="translate(-186.049 -163.739)" fill="#efb7b9"/>
    <path id="Path_73" data-name="Path 73" d="M281,229.443l.708,2.862.918-.556a6.816,6.816,0,0,0-.824-2.759Z" transform="translate(-186.049 -170.567)" opacity="0.1"/>
    <path id="Path_74" data-name="Path 74" d="M221.18,255.641l1.017,5.97,6.02-1.248c-.144-.457-1.927-6.226-.638-7.646,1.351-1.478.824-5.649.824-5.649s-2.335-2.685-2.808-3.335-3.5-1.161-3.5-1.161a2.434,2.434,0,0,1-.218-.852,3.426,3.426,0,0,0-.231.638,2.4,2.4,0,0,0,1.606,2.384c.1.049.21.095.325.14.181.074.383.144.6.21l.1.029a3.387,3.387,0,0,1,2.359,1.738,4.443,4.443,0,0,1,.881,3.129C227.319,251.82,221.18,255.641,221.18,255.641Z" transform="translate(-150.861 -178.056)" opacity="0.1"/>
    <path id="Path_75" data-name="Path 75" d="M222,248.049l1.017,5.966,6.806-1.416a12.265,12.265,0,0,0-.679-3.166c-.474-.914-.379-4.484-.379-4.484,2.882-3.1,1.367-5.629,1.367-5.629s8.47-1.375,8.614-1.647a25.055,25.055,0,0,1,2.969-1.779s3.068-.786,3.483-1.235a3.7,3.7,0,0,1,.5-.457,1.32,1.32,0,0,1,.165-.107l.226,1.956h.1a2.787,2.787,0,0,0,1.334-.527c.7-.535-.185-6.4-.865-6.609a.782.782,0,0,0-.391,0,4.423,4.423,0,0,0-1.462.791l-.119.095-.041.037a28.829,28.829,0,0,0-4.6,2.195c-.766.692-6.728,1.569-6.728,1.569s-2.672.634-3.018.251-4.426-1.009-4.768-.412-1.289.49-1.289.49c-.671-.774-1.136-.474-1.421-.029a3.108,3.108,0,0,0-.362.861,2.515,2.515,0,0,0,1.931,2.524c.214.082.445.165.7.239a3.373,3.373,0,0,1,2.359,1.738,4.435,4.435,0,0,1,.885,3.129C228.152,244.228,222,248.049,222,248.049Z" transform="translate(-151.343 -170.508)" fill="#444053"/>
    <path id="Path_76" data-name="Path 76" d="M278.753,229a.634.634,0,0,1,.218.025c.679.206,1.561,6.078.861,6.613a2.759,2.759,0,0,1-1.19.515h-.1l-.226-1.956a1.321,1.321,0,0,0-.165.107v-.082a5.081,5.081,0,0,0-.968-4.344Z" transform="translate(-183.802 -170.571)" opacity="0.1"/>
    <path id="Path_77" data-name="Path 77" d="M278.438,234.122l.226,1.956a2.738,2.738,0,0,0,1.453-.556c.7-.535-.185-6.4-.865-6.609-.535-.165-1.478.5-1.853.786A5.089,5.089,0,0,1,278.438,234.122Z" transform="translate(-183.932 -170.507)" fill="#444053"/>
    <path id="Path_78" data-name="Path 78" d="M225.1,244.415l.976-.914-2.545-2.471a3.108,3.108,0,0,0-.362.861A2.524,2.524,0,0,0,225.1,244.415Z" transform="translate(-152.031 -177.65)" fill="#444053"/>
    <path id="Path_79" data-name="Path 79" d="M209.208,220.117c.371.243.675.638,1.12.7a1.742,1.742,0,0,0,.906-.226,3.35,3.35,0,0,1,2.335-.317c1.087.362,1.684,1.614,2.767,1.981a1.935,1.935,0,0,0,1.038.058,1.865,1.865,0,0,0,1.478-1.927,1.951,1.951,0,0,1,0,.873,1.91,1.91,0,0,1-.848,1.169,1.853,1.853,0,0,1-.585.235,1.919,1.919,0,0,1-1.033-.058c-1.087-.366-1.684-1.618-2.771-1.981a3.372,3.372,0,0,0-2.335.317,1.742,1.742,0,0,1-.906.226c-.441-.058-.749-.453-1.12-.7-.062-.478-1.351-.041-1.511-.614a.683.683,0,0,1,0-.264C208,220.031,209.146,219.668,209.208,220.117Z" transform="translate(-142.948 -165.038)" opacity="0.1"/>
    <path id="Path_80" data-name="Path 80" d="M219.512,253.6s-.539,1.515.148,2.026c0,0-.754-2.005-1.19-1.96" transform="translate(-149.266 -185.044)" opacity="0.1"/>
    <path id="Path_81" data-name="Path 81" d="M299.769,217.76s-3.479,3.01-.964,3.5S299.769,217.76,299.769,217.76Z" transform="translate(-195.986 -163.961)" fill="#efb7b9"/>
    <g id="Group_3" data-name="Group 3" transform="translate(178.29 66.732)" opacity="0.1">
      <path id="Path_82" data-name="Path 82" d="M643.342,420.25H535.05v95.914c0,21.93-16.779,37.058-37.313,37.058a41.23,41.23,0,0,1-14.337-2.516,40.163,40.163,0,0,0,19.69,4.986c20.534,0,37.313-15.12,37.313-37.058V422.721H643.342Z" transform="translate(-483.4 -349.807)"/>
      <path id="Path_83" data-name="Path 83" d="M558.42,240.455h5.353V214.511H666.72V212.04H558.42Z" transform="translate(-506.778 -191.46)"/>
      <path id="Path_84" data-name="Path 84" d="M854.04,249.17V415.519c0,21.93-16.779,37.058-37.313,37.058a41.231,41.231,0,0,1-14.337-2.516,40.163,40.163,0,0,0,19.69,4.986c20.534,0,37.313-15.12,37.313-37.058V249.17Z" transform="translate(-671.045 -249.17)"/>
    </g>
    <path id="Path_85" data-name="Path 85" d="M628.489,135.34c2.656,5.489,7,11.731,11.912,9.347s8.581-12.5,5.925-17.994-8.807-8-13.732-5.612S625.829,129.859,628.489,135.34Z" transform="translate(-389.742 -106.559)" fill="#ff6584"/>
    <path id="Path_86" data-name="Path 86" d="M652.164,182.969s.959-.161.593-.951a1.474,1.474,0,0,0-.115-.2,2.54,2.54,0,0,1-.366-1.021,3.7,3.7,0,0,1,.045-1.272l-2.615-.173s1.017.865.9,1.318a.259.259,0,0,1-.119.156.412.412,0,0,1-.173.074l-.2.058c-.688.243-.412.589-.412.589C649.792,182.673,652.164,182.969,652.164,182.969Z" transform="translate(-402.905 -141.367)" fill="#ff6584"/>
    <path id="Path_87" data-name="Path 87" d="M651.68,182.706l1.845.255a2.3,2.3,0,0,1-.054-.284c-.469-.021-1.206-.082-1.672-.128a.259.259,0,0,1-.119.156Z" transform="translate(-404.1 -143.249)" fill="#444053"/>
    <path id="Path_88" data-name="Path 88" d="M652.164,185.263s.959-.161.593-.951a2.965,2.965,0,0,1-1.132.045,2.507,2.507,0,0,1-1.511-1.108c-.688.243-.412.589-.412.589C649.792,184.967,652.164,185.263,652.164,185.263Z" transform="translate(-402.905 -143.661)" fill="#ff6584"/>
    <path id="Path_89" data-name="Path 89" d="M652.164,185.263s.959-.161.593-.951a2.965,2.965,0,0,1-1.132.045,2.507,2.507,0,0,1-1.511-1.108c-.688.243-.412.589-.412.589C649.792,184.967,652.164,185.263,652.164,185.263Z" transform="translate(-402.905 -143.661)" opacity="0.1"/>
    <path id="Path_90" data-name="Path 90" d="M652.37,123.734s2.923-.354,3.751,1.593a2.351,2.351,0,0,0-1.05.062,1.491,1.491,0,0,1-.684.132,3.92,3.92,0,0,0-2.018-1.787Z" transform="translate(-404.506 -108.636)" fill="#fff" opacity="0.1"/>
    <path id="Path_91" data-name="Path 91" d="M658.39,214.938a1.034,1.034,0,0,0,.165-.165,2.227,2.227,0,0,1,.626-.494,2.194,2.194,0,0,1,.259-.132,3.817,3.817,0,0,1,.824-.247,3.293,3.293,0,0,1,.412-.045l-.371-1.771v-.025l-.161-.77a5.585,5.585,0,0,1-.371.646c-.189.288-.412.564-.659.568a.292.292,0,0,1-.185-.07.559.559,0,0,1-.115-.148c-.041-.066-.074-.124-.111-.177-.412-.593-.671-.222-.671-.222-.469.169-.663.729-.733,1.293a.8.8,0,0,1-.025.243,6.46,6.46,0,0,0,.041,1.2S657.739,215.506,658.39,214.938Z" transform="translate(-407.385 -160.155)" fill="#ff6584"/>
    <path id="Path_92" data-name="Path 92" d="M661.671,215.915a2.189,2.189,0,0,1,.259-.132c-.091-.383-.2-.959-.28-1.412v-.095a.281.281,0,0,0-.025-.136.292.292,0,0,1-.185-.07l.041.276v.111Z" transform="translate(-409.842 -161.791)" fill="#444053"/>
    <path id="Path_93" data-name="Path 93" d="M658.39,215.628a2.969,2.969,0,0,1-.346-1.079,2.337,2.337,0,0,1,.078-.683c.021-.066.037-.132.062-.194a2.006,2.006,0,0,1,.519-.873c-.412-.593-.671-.222-.671-.222-.469.169-.663.729-.733,1.293a.8.8,0,0,1-.025.243,6.466,6.466,0,0,0,.041,1.2S657.739,216.2,658.39,215.628Z" transform="translate(-407.385 -160.845)" fill="#ff6584"/>
    <path id="Path_94" data-name="Path 94" d="M658.39,215.628a2.969,2.969,0,0,1-.346-1.079,2.337,2.337,0,0,1,.078-.683c.021-.066.037-.132.062-.194a2.006,2.006,0,0,1,.519-.873c-.412-.593-.671-.222-.671-.222-.469.169-.663.729-.733,1.293a.8.8,0,0,1-.025.243,6.466,6.466,0,0,0,.041,1.2S657.739,216.2,658.39,215.628Z" transform="translate(-407.385 -160.845)" opacity="0.1"/>
    <path id="Path_95" data-name="Path 95" d="M609.074,152.433a30.166,30.166,0,0,0,7.226,3.545,8.883,8.883,0,0,0,5.172.272,4.739,4.739,0,0,0,1.754-1.013,5,5,0,0,0,.885-1.054c1.742-2.722,1.709-7.506.329-11.649a12.806,12.806,0,0,0-4.665-6.786c-5.13-3.294-11.686-2.223-14.642,2.384S603.943,149.139,609.074,152.433Z" transform="translate(-375.877 -114.594)" fill="#ff6584"/>
    <path id="Path_96" data-name="Path 96" d="M609.074,152.433a30.166,30.166,0,0,0,7.226,3.545,8.883,8.883,0,0,0,5.172.272,4.739,4.739,0,0,0,1.754-1.013,5,5,0,0,0,.885-1.054c1.742-2.722,1.709-7.506.329-11.649a12.806,12.806,0,0,0-4.665-6.786c-5.13-3.294-11.686-2.223-14.642,2.384S603.943,149.139,609.074,152.433Z" transform="translate(-375.877 -114.594)" opacity="0.1"/>
    <path id="Path_97" data-name="Path 97" d="M646.239,188c.655.914,2.825-.066,2.825-.066s.737-.634,0-1.116a1.755,1.755,0,0,0-.2-.115,2.3,2.3,0,0,1-.655-.465c-.066-.066-.132-.136-.193-.21a3.853,3.853,0,0,1-.461-.729,3.051,3.051,0,0,1-.161-.383l-2.322,1.235a5.27,5.27,0,0,1,.729.177c.333.107.663.264.725.478a.26.26,0,0,1,0,.2.489.489,0,0,1-.111.152,2.036,2.036,0,0,0-.136.152C645.807,187.86,646.239,188,646.239,188Z" transform="translate(-400.212 -144.643)" fill="#ff6584"/>
    <path id="Path_98" data-name="Path 98" d="M648.58,188.629l1.7-.749c-.066-.066-.132-.136-.193-.21-.412.222-1.066.556-1.491.762a.259.259,0,0,1-.016.2Z" transform="translate(-402.277 -146.261)" fill="#444053"/>
    <path id="Path_99" data-name="Path 99" d="M647.644,190.722c.655.914,2.825-.066,2.825-.066s.737-.634,0-1.116a2.845,2.845,0,0,1-.943.626,2.508,2.508,0,0,1-1.861-.152C647.212,190.578,647.644,190.722,647.644,190.722Z" transform="translate(-401.617 -147.361)" fill="#ff6584"/>
    <path id="Path_100" data-name="Path 100" d="M647.644,190.722c.655.914,2.825-.066,2.825-.066s.737-.634,0-1.116a2.845,2.845,0,0,1-.943.626,2.508,2.508,0,0,1-1.861-.152C647.212,190.578,647.644,190.722,647.644,190.722Z" transform="translate(-401.617 -147.361)" opacity="0.1"/>
    <path id="Path_101" data-name="Path 101" d="M618.28,137.661s2.31-1.824,4.031-.6a2.372,2.372,0,0,0-.861.6,1.5,1.5,0,0,1-.519.469A3.924,3.924,0,0,0,618.28,137.661Z" transform="translate(-384.453 -116.242)" fill="#fff" opacity="0.1"/>
    <g id="Group_4" data-name="Group 4" transform="translate(255.218 38.062)" opacity="0.1">
      <path id="Path_102" data-name="Path 102" d="M677.266,182.105l-.535-2.565a4.943,4.943,0,0,1-.371.646,4.636,4.636,0,0,0,.494,1.968A2.884,2.884,0,0,1,677.266,182.105Z" transform="translate(-673.837 -179.54)"/>
      <path id="Path_103" data-name="Path 103" d="M671.372,183.192a1.232,1.232,0,0,0,.165-.165,2.3,2.3,0,0,1,.626-.5,2.2,2.2,0,0,1,.259-.132,3.529,3.529,0,0,1,.823-.243,2.886,2.886,0,0,1,.412-.049l-.535-2.565a4.942,4.942,0,0,1-.371.646c-.189.288-.432.568-.659.572a.3.3,0,0,1-.181-.074.506.506,0,0,1-.128-.132c-.037-.066-.074-.124-.107-.177-.412-.593-.675-.218-.675-.218-1.058.383-.716,2.734-.716,2.734S670.709,183.756,671.372,183.192Z" transform="translate(-670.232 -179.54)"/>
      <path id="Path_104" data-name="Path 104" d="M674.567,184.153a2.2,2.2,0,0,1,.259-.132c-.107-.449-.239-1.178-.325-1.647a.3.3,0,0,1-.181-.074Z" transform="translate(-672.637 -181.164)"/>
      <path id="Path_105" data-name="Path 105" d="M671.389,183.884a3.019,3.019,0,0,1-.346-1.083,2.528,2.528,0,0,1,.663-1.75c-.412-.593-.675-.218-.675-.218-1.058.383-.716,2.734-.716,2.734S670.727,184.448,671.389,183.884Z" transform="translate(-670.25 -180.232)"/>
      <path id="Path_106" data-name="Path 106" d="M671.389,183.884a3.019,3.019,0,0,1-.346-1.083,2.528,2.528,0,0,1,.663-1.75c-.412-.593-.675-.218-.675-.218-1.058.383-.716,2.734-.716,2.734S670.727,184.448,671.389,183.884Z" transform="translate(-670.25 -180.232)" opacity="0.1"/>
    </g>
    <path id="Path_107" data-name="Path 107" d="M670.564,181.958a1.035,1.035,0,0,0,.165-.165,2.3,2.3,0,0,1,.626-.494,2.193,2.193,0,0,1,.259-.132,3.527,3.527,0,0,1,.823-.243,2.883,2.883,0,0,1,.412-.049l-.535-2.565a5.247,5.247,0,0,1-.371.646c-.189.288-.412.568-.659.568a.272.272,0,0,1-.181-.07.568.568,0,0,1-.119-.148c-.037-.066-.074-.124-.107-.177-.412-.593-.675-.222-.675-.222-1.058.387-.716,2.738-.716,2.738S669.9,182.526,670.564,181.958Z" transform="translate(-414.543 -140.755)" fill="#ff6584"/>
    <path id="Path_108" data-name="Path 108" d="M673.747,182.929a2.2,2.2,0,0,1,.259-.132c-.107-.449-.239-1.178-.325-1.647a.272.272,0,0,1-.181-.07Z" transform="translate(-416.936 -142.384)" fill="#444053"/>
    <path id="Path_109" data-name="Path 109" d="M670.6,182.648a2.969,2.969,0,0,1-.346-1.079,2.529,2.529,0,0,1,.684-1.75c-.412-.593-.675-.222-.675-.222-1.058.387-.716,2.738-.716,2.738S669.936,183.216,670.6,182.648Z" transform="translate(-414.578 -141.444)" fill="#ff6584"/>
    <path id="Path_110" data-name="Path 110" d="M670.6,182.648a2.969,2.969,0,0,1-.346-1.079,2.529,2.529,0,0,1,.684-1.75c-.412-.593-.675-.222-.675-.222-1.058.387-.716,2.738-.716,2.738S669.936,183.216,670.6,182.648Z" transform="translate(-414.578 -141.444)" opacity="0.1"/>
    <g id="Group_5" data-name="Group 5" transform="translate(252.831 33.05)" opacity="0.1">
      <path id="Path_111" data-name="Path 111" d="M666.529,168.041a4.7,4.7,0,0,0,1.9.7,3.466,3.466,0,0,1,.189-.371l-2.421-1a4.943,4.943,0,0,1,.329.671Z" transform="translate(-665.473 -167.37)"/>
      <path id="Path_112" data-name="Path 112" d="M666.323,171.606s.959.161.869-.708a1.33,1.33,0,0,0-.045-.231,2.278,2.278,0,0,1-.058-.795,2.206,2.206,0,0,1,.041-.288,3.967,3.967,0,0,1,.453-1.19l-2.421-1a4.933,4.933,0,0,1,.338.663c.132.321.222.679.1.865a.284.284,0,0,1-.165.111.436.436,0,0,1-.185,0h-.21c-.725,0-.56.412-.56.412C664.178,170.565,666.323,171.606,666.323,171.606Z" transform="translate(-664.443 -167.382)"/>
      <path id="Path_113" data-name="Path 113" d="M666.8,171.214l1.647.824a2.206,2.206,0,0,1,.041-.288c-.436-.169-1.112-.469-1.54-.659A.284.284,0,0,1,666.8,171.214Z" transform="translate(-665.826 -169.558)"/>
      <path id="Path_114" data-name="Path 114" d="M666.314,173.965s.959.161.869-.708a2.965,2.965,0,0,1-1.087-.321,2.537,2.537,0,0,1-1.075-1.536c-.725,0-.56.412-.56.412C664.169,172.923,666.314,173.965,666.314,173.965Z" transform="translate(-664.433 -169.741)"/>
      <path id="Path_115" data-name="Path 115" d="M666.314,173.965s.959.161.869-.708a2.965,2.965,0,0,1-1.087-.321,2.537,2.537,0,0,1-1.075-1.536c-.725,0-.56.412-.56.412C664.169,172.923,666.314,173.965,666.314,173.965Z" transform="translate(-664.433 -169.741)" opacity="0.1"/>
    </g>
    <path id="Path_116" data-name="Path 116" d="M665.886,170.97s.959.161.869-.7a1.257,1.257,0,0,0-.045-.231,2.3,2.3,0,0,1-.058-.8,2.134,2.134,0,0,1,.041-.284,3.366,3.366,0,0,1,.263-.824,3.454,3.454,0,0,1,.189-.371l-2.421-1.009a4.944,4.944,0,0,1,.329.671c.132.325.222.679.1.869a.3.3,0,0,1-.165.107.505.505,0,0,1-.185,0h-.21c-.725,0-.56.412-.56.412C663.749,169.933,665.886,170.97,665.886,170.97Z" transform="translate(-411.352 -133.955)" fill="#ff6584"/>
    <path id="Path_117" data-name="Path 117" d="M666.39,170.6l1.647.824a2.134,2.134,0,0,1,.041-.284c-.436-.169-1.112-.469-1.54-.659a.3.3,0,0,1-.148.119Z" transform="translate(-412.754 -136.149)" fill="#444053"/>
    <path id="Path_118" data-name="Path 118" d="M665.886,173.341s.959.161.869-.7a3.064,3.064,0,0,1-1.087-.325,2.528,2.528,0,0,1-1.075-1.532c-.725,0-.56.412-.56.412C663.749,172.3,665.886,173.341,665.886,173.341Z" transform="translate(-411.352 -136.325)" fill="#ff6584"/>
    <path id="Path_119" data-name="Path 119" d="M665.886,173.341s.959.161.869-.7a3.064,3.064,0,0,1-1.087-.325,2.528,2.528,0,0,1-1.075-1.532c-.725,0-.56.412-.56.412C663.749,172.3,665.886,173.341,665.886,173.341Z" transform="translate(-411.352 -136.325)" opacity="0.1"/>
    <path id="Path_120" data-name="Path 120" d="M644.772,198.931a5.111,5.111,0,0,1,.375-.642c.2-.288.441-.564.663-.564a.259.259,0,0,1,.185.074.535.535,0,0,1,.115.144c.037.07.074.128.107.181.412.6.675.226.675.226,1.062-.371.741-2.73.741-2.73s-.412-.885-1.071-.325a1.512,1.512,0,0,0-.169.161,2.631,2.631,0,0,1-.889.622,3.706,3.706,0,0,1-.823.235,2.62,2.62,0,0,1-.412.045Z" transform="translate(-399.742 -150.637)" fill="#ff6584"/>
    <path id="Path_121" data-name="Path 121" d="M647.565,198.925a.26.26,0,0,1,.185.074l-.231-1.849a2.169,2.169,0,0,1-.259.128C647.367,197.731,647.491,198.459,647.565,198.925Z" transform="translate(-401.5 -151.837)" fill="#444053"/>
    <path id="Path_122" data-name="Path 122" d="M649,198.124c.412.6.675.226.675.226,1.062-.371.741-2.73.741-2.73s-.412-.885-1.07-.325a2.884,2.884,0,0,1,.329,1.083A2.5,2.5,0,0,1,649,198.124Z" transform="translate(-402.524 -150.637)" fill="#ff6584"/>
    <path id="Path_123" data-name="Path 123" d="M649,198.124c.412.6.675.226.675.226,1.062-.371.741-2.73.741-2.73s-.412-.885-1.07-.325a2.884,2.884,0,0,1,.329,1.083A2.5,2.5,0,0,1,649,198.124Z" transform="translate(-402.524 -150.637)" opacity="0.1"/>
    <path id="Path_124" data-name="Path 124" d="M638.136,199.016a8.05,8.05,0,0,0,1.235-4.118c.2-.288.441-.564.663-.564a.259.259,0,0,1,.185.074.535.535,0,0,1,.115.144c.037.07.074.128.107.181.412.6.675.226.675.226,1.062-.371.741-2.73.741-2.73s-.412-.885-1.071-.325a1.52,1.52,0,0,0-.169.161,2.631,2.631,0,0,1-.889.622,3.705,3.705,0,0,1-.824.235,5.535,5.535,0,0,0-.762-1.145,9.392,9.392,0,0,0-3.665-2.417C635.057,193.012,636.131,196.858,638.136,199.016Z" transform="translate(-393.983 -147.255)" opacity="0.1"/>
    <path id="Path_125" data-name="Path 125" d="M657.39,180.291a7.152,7.152,0,0,0,.885-.2,7.754,7.754,0,0,0,.786-.272l.169-.07c.218-.095.441-.2.663-.313s.333-.173.5-.268a18.682,18.682,0,0,0,7.535-9.133,11.99,11.99,0,0,0,.737-3.138,8.438,8.438,0,0,0-.025-1.709,12.061,12.061,0,0,0-1.532-4.616c-.091-.152-.177-.3-.272-.436a9.836,9.836,0,0,0-9.2-4.71,10.019,10.019,0,0,0,3.537,5.3c.132.325.222.679.1.869a.3.3,0,0,1-.165.107.506.506,0,0,1-.185,0h-.21c-.725,0-.56.412-.56.412-.284,1.091,1.853,2.133,1.853,2.133s.959.161.869-.7a1.268,1.268,0,0,0-.045-.231,2.3,2.3,0,0,1-.058-.8,2.144,2.144,0,0,1,.041-.284,3.361,3.361,0,0,1,.263-.824,5.291,5.291,0,0,0,1.375,0,7.306,7.306,0,0,0,1.878-.511c-.087.136-.165.272-.239.412a8.078,8.078,0,0,0-1.235,4.118c-.189.288-.412.568-.659.568a.272.272,0,0,1-.181-.07.568.568,0,0,1-.119-.148c-.037-.066-.074-.124-.107-.177-.412-.593-.675-.222-.675-.222-1.058.387-.716,2.738-.716,2.738s.412.881,1.075.313a1.032,1.032,0,0,0,.165-.165,2.3,2.3,0,0,1,.626-.494,2.193,2.193,0,0,1,.259-.132,3.53,3.53,0,0,1,.824-.243,5.244,5.244,0,0,0,.77,1.141l.165.177-.058.054a32.526,32.526,0,0,0-3.652,3.887,14.575,14.575,0,0,0-.939,1.309q-.3.465-.568.926a8.1,8.1,0,0,0-1.211,4.118c-.189.288-.412.564-.659.568a.293.293,0,0,1-.185-.07.56.56,0,0,1-.115-.148c-.041-.066-.074-.124-.111-.177-.412-.593-.671-.222-.671-.222A1.554,1.554,0,0,0,657.39,180.291Z" transform="translate(-407.459 -127.266)" opacity="0.1"/>
    <g id="Group_6" data-name="Group 6" transform="translate(240.149 27.957)" opacity="0.1">
      <path id="Path_126" data-name="Path 126" d="M666.874,162.513a1.482,1.482,0,0,0,.692.095,2.4,2.4,0,0,1,1.013.28c-.156-2.108-3.039-2.718-3.039-2.718a3.912,3.912,0,0,1,1.334,2.343Z" transform="translate(-652.402 -158.041)"/>
      <path id="Path_127" data-name="Path 127" d="M633.727,167.147c.053.412.111.861.181,1.3a8.883,8.883,0,0,0,5.172.272c.333.107.663.264.725.478a.259.259,0,0,1,0,.2.491.491,0,0,1-.111.152,2.026,2.026,0,0,0-.136.152c-.461.564-.029.708-.029.708.655.914,2.825-.066,2.825-.066s.737-.634,0-1.116a1.766,1.766,0,0,0-.2-.115,2.3,2.3,0,0,1-.655-.465c-.066-.066-.132-.136-.193-.21a3.856,3.856,0,0,1-.461-.729,5,5,0,0,0,.885-1.054c1.742-2.722,1.709-7.506.329-11.649C636.7,155.758,632.99,161.176,633.727,167.147Z" transform="translate(-633.634 -155)"/>
      <path id="Path_128" data-name="Path 128" d="M645.518,212.646a4.694,4.694,0,0,0,1.9.712,3.013,3.013,0,0,1,.193-.371L645.18,212A5.692,5.692,0,0,1,645.518,212.646Z" transform="translate(-640.426 -188.53)"/>
      <path id="Path_129" data-name="Path 129" d="M645.311,216.2s.964.165.869-.7a1.227,1.227,0,0,0-.041-.231,2.31,2.31,0,0,1-.058-.8,2.042,2.042,0,0,1,.037-.284,3.7,3.7,0,0,1,.264-.824,2.985,2.985,0,0,1,.193-.371L644.15,212a5.7,5.7,0,0,1,.329.667c.128.325.218.684.095.869a.272.272,0,0,1-.161.111.544.544,0,0,1-.189,0,1.862,1.862,0,0,0-.206,0c-.729,0-.564.412-.564.412C643.174,215.158,645.311,216.2,645.311,216.2Z" transform="translate(-639.395 -188.53)"/>
      <path id="Path_130" data-name="Path 130" d="M645.82,215.829l1.647.823a1.074,1.074,0,0,1,.037-.284c-.432-.169-1.112-.469-1.54-.659A.276.276,0,0,1,645.82,215.829Z" transform="translate(-640.802 -190.712)"/>
      <path id="Path_131" data-name="Path 131" d="M645.31,218.531s.959.161.869-.708a2.924,2.924,0,0,1-1.087-.321,2.511,2.511,0,0,1-1.075-1.532c-.729,0-.564.412-.564.412C643.169,217.493,645.31,218.531,645.31,218.531Z" transform="translate(-639.395 -190.865)"/>
      <path id="Path_132" data-name="Path 132" d="M645.31,218.531s.959.161.869-.708a2.924,2.924,0,0,1-1.087-.321,2.511,2.511,0,0,1-1.075-1.532c-.729,0-.564.412-.564.412C643.169,217.493,645.31,218.531,645.31,218.531Z" transform="translate(-639.395 -190.865)" opacity="0.1"/>
      <path id="Path_133" data-name="Path 133" d="M666.874,162.513a1.482,1.482,0,0,0,.692.095,2.4,2.4,0,0,1,1.013.28c-.156-2.108-3.039-2.718-3.039-2.718a3.912,3.912,0,0,1,1.334,2.343Z" transform="translate(-652.402 -158.041)" opacity="0.1"/>
    </g>
    <path id="Path_134" data-name="Path 134" d="M635.165,167.84c.745,6.053,2.833,13.357,8.264,12.686s12.155-9.059,11.41-15.115-5.765-10.409-11.192-9.738S634.416,161.791,635.165,167.84Z" transform="translate(-394.33 -127.398)" fill="#ff6584"/>
    <path id="Path_135" data-name="Path 135" d="M646.731,216.976s.959.165.869-.7a1.822,1.822,0,0,0-.041-.231,2.213,2.213,0,0,1-.062-.8,1.635,1.635,0,0,1,.041-.284,3.706,3.706,0,0,1,.457-1.19l-2.421-1.009s.683,1.149.412,1.54a.284.284,0,0,1-.165.111.635.635,0,0,1-.185,0h-.206c-.729,0-.564.412-.564.412C644.594,215.943,646.731,216.976,646.731,216.976Z" transform="translate(-400.078 -161.02)" fill="#ff6584"/>
    <path id="Path_136" data-name="Path 136" d="M647.25,216.609l1.647.823a1.629,1.629,0,0,1,.041-.284c-.436-.169-1.112-.469-1.54-.659A.284.284,0,0,1,647.25,216.609Z" transform="translate(-401.495 -163.214)" fill="#444053"/>
    <path id="Path_137" data-name="Path 137" d="M646.746,219.341s.959.165.869-.7a2.882,2.882,0,0,1-1.087-.325,2.5,2.5,0,0,1-1.071-1.532c-.729,0-.564.412-.564.412C644.609,218.308,646.746,219.341,646.746,219.341Z" transform="translate(-400.093 -163.385)" fill="#ff6584"/>
    <path id="Path_138" data-name="Path 138" d="M646.746,219.341s.959.165.869-.7a2.882,2.882,0,0,1-1.087-.325,2.5,2.5,0,0,1-1.071-1.532c-.729,0-.564.412-.564.412C644.609,218.308,646.746,219.341,646.746,219.341Z" transform="translate(-400.093 -163.385)" opacity="0.1"/>
    <path id="Path_139" data-name="Path 139" d="M667,161s2.882.609,3.039,2.718a2.364,2.364,0,0,0-1.017-.276,1.5,1.5,0,0,1-.688-.1A3.94,3.94,0,0,0,667,161Z" transform="translate(-413.112 -130.572)" fill="#fff" opacity="0.1"/>
    <path id="Path_140" data-name="Path 140" d="M645.717,218.1a1.754,1.754,0,0,1,1.561,2.158c-.362,1.215-1.853,1.6-2.825,2.409a4.952,4.952,0,0,0-1.556,3.372,8.268,8.268,0,0,0,2.376,6.539c.873.861,1.927,1.519,2.788,2.392a14.238,14.238,0,0,1,2.409,3.673,8.6,8.6,0,0,1,1.066,3.088,7.279,7.279,0,0,1-1.771,4.785,32.747,32.747,0,0,0-3.1,4.192,8.808,8.808,0,0,0-.506,6.905.893.893,0,0,0,.292.461.325.325,0,0,0,.478-.1" transform="translate(-398.916 -164.161)" fill="none" stroke="#444053" stroke-miterlimit="10" stroke-width="1"/>
    <path id="Path_141" data-name="Path 141" d="M650.14,217.36a.824.824,0,0,1,.037,1.046,1.272,1.272,0,0,1-1,.465c-.465,0-.984-.144-1.367.128a1.182,1.182,0,0,0-.412.894,4.552,4.552,0,0,1-.1,1.009,2.008,2.008,0,0,1-.445.725,2.228,2.228,0,0,1-.823.6c-.688.268-1.482.025-2.186.247a3.07,3.07,0,0,0-1.7,2.223,6.4,6.4,0,0,0-.2,3.451,11.945,11.945,0,0,0,.935,2.116,4.788,4.788,0,0,1,.609,2.207,2.026,2.026,0,0,1-1.161,1.853" transform="translate(-398.278 -163.726)" fill="none" stroke="#444053" stroke-miterlimit="10" stroke-width="1"/>
    <path id="Path_142" data-name="Path 142" d="M582.794,278.333c-1.108,1.474-1.528,3.829-3.339,4.188a4.15,4.15,0,0,1-2.7-.758,19.232,19.232,0,0,0-6.176-2.54,6.674,6.674,0,0,0-6.135,1.849c-.992,1.161-1.4,2.718-2.273,3.969a8.145,8.145,0,0,1-4.612,3.031,18.872,18.872,0,0,1-5.592.478,3.039,3.039,0,0,1-1.972-.535,4.8,4.8,0,0,1-.823-1.256,5.494,5.494,0,0,0-4.4-2.433A11.57,11.57,0,0,0,539.7,285.4a5.407,5.407,0,0,1-2.528.638,4.634,4.634,0,0,1-2.907-2.079,41.178,41.178,0,0,1-4.995-8.128" transform="translate(-332.093 -198.121)" fill="none" stroke="#444053" stroke-miterlimit="10" stroke-width="1"/>
    <path id="Path_143" data-name="Path 143" d="M497.882,408.666c.441-1.6.729-3.01.729-3.01a6.3,6.3,0,0,1,.823-3.051l.021-.441h0l.124-3.249a10.934,10.934,0,0,0-.754-1.733c-.548-1.042.185-4.764.185-4.764s2.372-5.192,1.972-8.556,5.023-14.691,5.023-14.691a14.567,14.567,0,0,0-.342-3.294,2.8,2.8,0,0,1-.037-.692v-.058c.161-2.2,2.059-6.275,2.059-6.275l.07-7.889A23.191,23.191,0,0,1,508.88,340.1c.716-2.153,1.19-3.879,1.5-5.213.037-.152.07-.3.1-.436-3.706-.716-6.555-1.3-6.555-1.3s2.516-8.989,4.043-10.52,2.882-6.481,2.882-6.481,1.009-6.378-.152-8.3a12.375,12.375,0,0,1-1.194-5.176s-2.734-2.149-3.051-3.072a15.042,15.042,0,0,1-.782-4.064c.041-1.079.412-2.03.334-2.6s.926-2.693.494-3.73a2.884,2.884,0,0,1-.148-.992v-.029a13.792,13.792,0,0,1,.35-2.652,7.51,7.51,0,0,1,2.841-1.379l.07-.243.181-.63c.1-.062.193-.111.284-.156V282.9l.062-.922-.362-2.088c-.725-3.632,4.117-3.986,4.117-3.986a2.529,2.529,0,0,1,1.408-1.141c.98-.3-.049,5.423-.515,5.765a22.362,22.362,0,0,0-2.009,2.882h0l-.091.144a2.009,2.009,0,0,1,.214.239l-.231,1.235-.037.189a5.2,5.2,0,0,1,.716,1.338,2.789,2.789,0,0,0-.782,2.018,6.365,6.365,0,0,1-.387,2.471c.054-.054.7-.7,1.309-.515s2.318.77,2.318.77,1.281.28,1.153.556.823,1.565.823,1.565l3.607-3.1c.037-.1.078-.194.111-.3a8.106,8.106,0,0,0,.358-1.425,7.9,7.9,0,0,1-1.1-.412,2.38,2.38,0,0,1-.935-.651,3.707,3.707,0,0,1-.5-1.515,21.368,21.368,0,0,0-1.178-2.915,9.343,9.343,0,0,1-.494-5.176,3.4,3.4,0,0,1,.593-1.486c.593-.758,1.647-1.034,2.4-1.622s1.289-1.523,2.174-1.956a4.153,4.153,0,0,1,2.639-.124,14.122,14.122,0,0,1,4.842,1.972,2.5,2.5,0,0,0,1.618.6,2.178,2.178,0,0,0,1.235-.823v-.045l.037-.045a6.113,6.113,0,0,1,.441,2.615,1.737,1.737,0,0,1-.033.412v.144a.591.591,0,0,0,0,.119h0a.713.713,0,0,0,0,.185,1.33,1.33,0,0,0,.3.482,2.472,2.472,0,0,1,.268.412.477.477,0,0,0-.041-.144,2.059,2.059,0,0,1,.317,1.108,1.1,1.1,0,0,1-.288.77,3.578,3.578,0,0,1-.585.432,6.588,6.588,0,0,1-3.426,6.749c-.041.095-.086.194-.128.292a8.28,8.28,0,0,0-.774,3.755.8.8,0,0,0,.033.276,1.812,1.812,0,0,1,.115.148h0s5.715.276,7.111-.893,3.294,3.113,3.294,3.113,2.038.474,2.471.095,2.816.049,2.816.049a5.159,5.159,0,0,1,3.623-1.165A10.588,10.588,0,0,1,551.4,292h.066a2.961,2.961,0,0,1,1.293-.115,26.367,26.367,0,0,0,3.772-3.43c.869-1.215,4.941-5.7,4.974-5.715l.021-.226.07-.671a2.507,2.507,0,0,0,.35.045c.025-.066.053-.144.091-.231a12.262,12.262,0,0,1,.9-1.874s.033-.852-.21-1.075.235-3.331.235-3.331,2.759-5.826,4.863-1.318c0,0,4.179,3.03.449,6.226,0,0-1.462.638-1.688,1.182-.148.354-.675,1.338-1.025,1.989-.062.107-.115.206-.161.292l.041.037-.074.552-.033.214c.667.412,1.112.823.988,1.1a6.328,6.328,0,0,0-.469,1.515s-5.221,6.045-5.97,8.688c0,0-13.666,7.412-18.08,7.823l.609,4s.14,2.392.049,3.241.346,4.731.346,4.731.544,5.7,1.157,6.518.366,4.216.366,4.216a28.449,28.449,0,0,0,.7,4.855,12.423,12.423,0,0,1,0,4.83s2.03,5.192-3.166,1.523c0,0-2.615-.264-5.625-.482v.3c0,.387,0,.824-.033,1.235-.07,2.928-.21,6.959-.457,10-.445,5.378-2.5,15.976-2.5,15.976l-.206,5.353a6.972,6.972,0,0,1,.095,1.536,9.947,9.947,0,0,1-1.647,5.308l-.63,3.537a14,14,0,0,0-1.128,3.706,1.758,1.758,0,0,0,.029.342,2.5,2.5,0,0,1,.025.552,30.226,30.226,0,0,1-1.132,5.468s-.21,3.912-.823,4.118c-.506.177.585,2.281.91,2.882a1.084,1.084,0,0,0,.025-.111l.07.124a2.771,2.771,0,0,1,.144,1,1.425,1.425,0,0,1-.7,1.351c-1.141.634-1.758,1.182-.824,1.441.358.1.741.14,1.025.259,0-.045.037-.091.054-.132a.626.626,0,0,1,.358.7,2.882,2.882,0,0,1-.412,1.314,14.058,14.058,0,0,1-1.7,2.829l-.449-.066a2.2,2.2,0,0,0,.243.494,1.907,1.907,0,0,0,.638.614,2.059,2.059,0,0,0,.791.3,2.261,2.261,0,0,1,1.647.873,1.728,1.728,0,0,1-.309,2.681l-4.245,1.285s-7.247.659-6.8-.943.733-3.01.733-3.01a6.4,6.4,0,0,1,.716-2.816,2.969,2.969,0,0,1,.272-.412l-.255-.041s-.387-3.59-1.066-4.3c-.156-.165-.189-.288-.144-.379-.066-.2.119-.3.358-.358a.615.615,0,0,0,.045.14,3.746,3.746,0,0,1,.7-.049s.309-1.861-.412-2.573a.72.72,0,0,1-.128-.56,3.056,3.056,0,0,1,.111-.762l.025.045a27.59,27.59,0,0,1,1.849-4.332,5.344,5.344,0,0,0-.317-2.4c-.445-.7.412-9.244.412-9.244a29.262,29.262,0,0,1,.585-6.057,6.924,6.924,0,0,0-.486-4.22v-.124a.091.091,0,0,0,0-.029l.095-.651v.041c.161-1.091.461-3.068.659-3.982.284-1.293.235-7.543.235-7.543l-.955-2.709-2.059,4.529-2.215,6.024a5.234,5.234,0,0,0-1.112,2.565v.194a3.383,3.383,0,0,1,0,.412A3.64,3.64,0,0,1,515.25,371s-.638,2.882-1.486,3.578a3.249,3.249,0,0,0-.9,2.121,37.922,37.922,0,0,1-1.647,4.879,7.481,7.481,0,0,0-.523,2.837h0v.152s-.2,1.495-.239,2.759v.416a4.574,4.574,0,0,0,.082,1.025s0,.037,0,.058v-.21a10.653,10.653,0,0,1,.2,2.627,6.715,6.715,0,0,1-1.285,4.3c-1.647,1.754-2.639,1.491-2.639,1.491s.675,2.3,1.594,2.788a.412.412,0,0,1,.1.066.226.226,0,0,1,.029-.132,1.108,1.108,0,0,1,.243.856,6.044,6.044,0,0,1-1.293,3.319,1.857,1.857,0,0,1-.824.432l.144.1c.115.066.218.119.317.165a1.508,1.508,0,0,0,.474.14,2.236,2.236,0,0,1,1.647.873,1.724,1.724,0,0,1-.3,2.681l-4.249,1.285S497.437,410.268,497.882,408.666Z" transform="translate(-313.618 -196.07)" fill="url(#linear-gradient-2)"/>
    <path id="Path_144" data-name="Path 144" d="M555.093,600.97l4.118-1.289a1.774,1.774,0,0,0,.3-2.685,2.15,2.15,0,0,0-1.573-.869,1.947,1.947,0,0,1-.766-.3,1.833,1.833,0,0,1-.618-.613,2.994,2.994,0,0,1-.412-1.585s-4.406-1.474-5.674-.218a3.355,3.355,0,0,0-.568.77,6.589,6.589,0,0,0-.679,2.849s-.28,1.4-.708,3.01S555.093,600.97,555.093,600.97Z" transform="translate(-343.402 -384.635)" fill="#2d293d"/>
    <path id="Path_145" data-name="Path 145" d="M507.039,594.289,511.157,593a1.77,1.77,0,0,0,.3-2.681,2.133,2.133,0,0,0-1.577-.869,1.61,1.61,0,0,1-.457-.144,2.06,2.06,0,0,1-.3-.165,2.573,2.573,0,0,1-1.046-2.178s-4.4-1.474-5.67-.218a3.252,3.252,0,0,0-.449.564,6.436,6.436,0,0,0-.8,3.055s-.284,1.408-.712,3.01S507.039,594.289,507.039,594.289Z" transform="translate(-315.125 -380.718)" fill="#2d293d"/>
    <path id="Path_146" data-name="Path 146" d="M552.478,593.4a3.352,3.352,0,0,0-.568.77h0l6.646,1.029a2.993,2.993,0,0,1-.412-1.585S553.746,592.149,552.478,593.4Z" transform="translate(-345.411 -384.634)" opacity="0.1"/>
    <path id="Path_147" data-name="Path 147" d="M504.109,587.29l-.049,1.235c.972,1.754,6.007,1.573,7.5.77a2.054,2.054,0,0,1-.3-.165,2.548,2.548,0,0,1-1.042-2.166s-4.4-1.474-5.67-.218A3.251,3.251,0,0,0,504.109,587.29Z" transform="translate(-317.264 -380.718)" opacity="0.1"/>
    <path id="Path_148" data-name="Path 148" d="M502.478,481.411a10.957,10.957,0,0,1,.729,1.733l-.173,4.48c1.062,1.915,7,1.519,7.823.527s1.787-3.623.9-4.118-1.54-2.788-1.54-2.788.955.263,2.557-1.491,1.3-5.8,1.054-6.777a20.055,20.055,0,0,1,.165-4.2,8.4,8.4,0,0,1,.511-2.989,37.281,37.281,0,0,0,1.61-4.883,3.34,3.34,0,0,1,.877-2.125c.823-.708,1.441-3.578,1.441-3.578a3.706,3.706,0,0,0,.663-2.417,4.942,4.942,0,0,1,1.079-2.911l2.162-6.053,1.993-4.529.9,2.738s.041,6.25-.235,7.547-.749,4.743-.749,4.743a7,7,0,0,1,.461,4.22,28.929,28.929,0,0,0-.572,6.053s-.824,8.548-.412,9.244a5.809,5.809,0,0,1,.3,2.4s-2.52,4.9-1.808,5.612.412,2.573.412,2.573-1.585-.062-.931.646,1.058,4.278,1.058,4.278l6.827,1.058a14.329,14.329,0,0,0,1.647-2.833c.988-2.059-.095-1.882-1-2.141s-.3-.823.8-1.445.539-2.195.539-2.195-1.54-2.845-.963-3.051.786-4.118.786-4.118,1.309-4.607,1.075-5.867,1.07-4.22,1.07-4.22l.535-3.558a9.82,9.82,0,0,0,1.507-6.7l.214-5.5s2-10.6,2.433-15.984c.276-3.442.412-8.157.482-11.1.037-1.647.049-2.742.049-2.742l-24.4-3.5a19.985,19.985,0,0,1-.585,3.623c-.3,1.338-.762,3.063-1.458,5.217a23.9,23.9,0,0,0-1.1,10.866l-.078,7.889s-2.359,5.192-1.976,7.024a14.978,14.978,0,0,1,.329,3.294s-5.266,11.327-4.883,14.691-1.919,8.56-1.919,8.56S501.951,480.369,502.478,481.411Z" transform="translate(-316.221 -280.257)" fill="#3f3d56"/>
    <path id="Path_149" data-name="Path 149" d="M528.952,503.351l-7.412-1.281S525.592,506.542,528.952,503.351Z" transform="translate(-327.546 -331.205)" opacity="0.05"/>
    <path id="Path_150" data-name="Path 150" d="M524.086,484.47s-.358,2.627,1.235,3.681C525.305,488.151,522.431,487.57,524.086,484.47Z" transform="translate(-328.742 -320.852)" opacity="0.1"/>
    <path id="Path_151" data-name="Path 151" d="M526.71,464.12s6.04,5.373,8.322,5.036S526.71,464.12,526.71,464.12Z" transform="translate(-330.587 -308.881)" opacity="0.1"/>
    <path id="Path_152" data-name="Path 152" d="M561.77,511.89s4.694,1.26,4.76,3.166S561.77,511.89,561.77,511.89Z" transform="translate(-351.211 -336.982)" opacity="0.1"/>
    <path id="Path_153" data-name="Path 153" d="M555.26,569.24s6.642,1.5,4.71,2.281a32.281,32.281,0,0,1-5.065,1.326S552.744,572.892,555.26,569.24Z" transform="translate(-346.665 -370.718)" opacity="0.05"/>
    <g id="Group_7" data-name="Group 7" transform="translate(186.058 138.521)" opacity="0.05">
      <path id="Path_154" data-name="Path 154" d="M569.866,576.837a1.318,1.318,0,0,0,.646-.947l.066.123s.564,1.552-.539,2.191l-.358.218c-.2-.045-.412-.082-.613-.14C568.161,578.019,568.783,577.475,569.866,576.837Z" transform="translate(-541.305 -513.151)"/>
      <path id="Path_155" data-name="Path 155" d="M550.55,574.609c-.177-.177-.152-.614-.021-1.169a3.15,3.15,0,0,1,.317,1.647A1.338,1.338,0,0,0,550.55,574.609Z" transform="translate(-530.595 -511.71)"/>
      <path id="Path_156" data-name="Path 156" d="M555.741,507.85a7.609,7.609,0,0,1,.371,2.1,8.528,8.528,0,0,0-.461-1.453S555.683,508.245,555.741,507.85Z" transform="translate(-533.669 -473.127)"/>
      <path id="Path_157" data-name="Path 157" d="M518.871,498.292a2.653,2.653,0,0,1-.037-.622c.066.412.111.824.14,1.169C518.945,498.658,518.9,498.477,518.871,498.292Z" transform="translate(-512.009 -467.138)"/>
      <path id="Path_158" data-name="Path 158" d="M554.188,555.018a3.658,3.658,0,0,1-.124-1.268,4.262,4.262,0,0,1,.268,1.606A1.6,1.6,0,0,0,554.188,555.018Z" transform="translate(-532.73 -500.127)"/>
      <path id="Path_159" data-name="Path 159" d="M549.465,582.68a22.081,22.081,0,0,1,.651,3.512l6.827,1.058a14.327,14.327,0,0,0,1.647-2.833c.086-.181.156-.346.214-.494.412.206.548.638-.041,1.861a14.3,14.3,0,0,1-1.647,2.837l-6.827-1.058s-.375-3.595-1.029-4.3C548.922,582.915,549.144,582.754,549.465,582.68Z" transform="translate(-529.811 -517.145)"/>
      <path id="Path_160" data-name="Path 160" d="M571.387,479.218s-.206,3.912-.782,4.118h0c-.259-.659-.412-1.281-.169-1.371.576-.206.782-4.118.782-4.118s1.314-4.608,1.079-5.867,1.071-4.216,1.071-4.216l.535-3.558a9.833,9.833,0,0,0,1.507-6.7l.21-5.5s2-10.6,2.433-15.98c.28-3.446.412-8.157.486-11.1,0-.531.021-1,.025-1.4l.2.029s0,1.1-.049,2.742c-.066,2.94-.206,7.655-.482,11.1-.436,5.382-2.433,15.984-2.433,15.984l-.214,5.5a9.821,9.821,0,0,1-1.507,6.7l-.535,3.558s-1.305,2.961-1.071,4.22S571.387,479.218,571.387,479.218Z" transform="translate(-542.295 -423.52)"/>
      <path id="Path_161" data-name="Path 161" d="M511.75,584.516a6.661,6.661,0,0,0,1.19-2.656c.675.659-.227,3.084-1.017,4.023s-6.757,1.388-7.823-.527l.041-1.079C505.623,585.854,510.96,585.451,511.75,584.516Z" transform="translate(-503.345 -516.663)"/>
      <path id="Path_162" data-name="Path 162" d="M502.3,571.871a11.486,11.486,0,0,1,.729,1.734l-.033.795c-.115-.292-.284-.688-.523-1.157a3.389,3.389,0,0,1-.194-1.412Z" transform="translate(-502.266 -510.763)"/>
      <path id="Path_163" data-name="Path 163" d="M521.626,563.068a10.73,10.73,0,0,1-.506-1.371s.955.264,2.553-1.491c1.169-1.276,1.326-3.768,1.235-5.406.247.976.548,5.019-1.054,6.777A4.077,4.077,0,0,1,521.626,563.068Z" transform="translate(-513.357 -500.745)"/>
      <path id="Path_164" data-name="Path 164" d="M530.109,500.527a29.769,29.769,0,0,0-.243,3.356,5.275,5.275,0,0,0-.1-.531,20.071,20.071,0,0,1,.165-4.2,8.439,8.439,0,0,1,.515-2.989,37.337,37.337,0,0,0,1.606-4.879,3.333,3.333,0,0,1,.877-2.125c.824-.7,1.445-3.582,1.445-3.582a3.734,3.734,0,0,0,.659-2.417,4.941,4.941,0,0,1,1.079-2.911l2.166-6.053,1.989-4.529.918,2.705v.865l-.741-2.2-1.981,4.529-2.162,6.053a4.942,4.942,0,0,0-1.079,2.911,3.706,3.706,0,0,1-.663,2.417s-.622,2.882-1.441,3.578a3.344,3.344,0,0,0-.877,2.125,37.255,37.255,0,0,1-1.61,4.879A8.5,8.5,0,0,0,530.109,500.527Z" transform="translate(-518.397 -450.668)"/>
    </g>
    <path id="Path_165" data-name="Path 165" d="M528.788,283.418l.346,2.088-.058.922-.045.679,2.355.334.284-.482h0a20.359,20.359,0,0,1,1.952-2.882c.453-.354,1.453-6.082.5-5.765a2.471,2.471,0,0,0-1.363,1.145S528.088,279.786,528.788,283.418Z" transform="translate(-331.768 -199.573)" fill="#ffcdd3"/>
    <path id="Path_166" data-name="Path 166" d="M529.48,298.372l2.355.334.284-.482h0a2.079,2.079,0,0,0-2.594-.531Z" transform="translate(-332.217 -210.838)" opacity="0.1"/>
    <path id="Path_167" data-name="Path 167" d="M527.92,299.782l3.092.824.086-.461.222-1.235a2.149,2.149,0,0,0-3.006-.531l-.177.634Z" transform="translate(-331.299 -211.153)" fill="#dce6f2"/>
    <path id="Path_168" data-name="Path 168" d="M651.12,281.986l3.265,1.915.325-.618c.342-.651.852-1.647,1-1.989.218-.544,1.647-1.186,1.647-1.186,3.615-3.2-.412-6.222-.412-6.222-2.03-4.509-4.71,1.322-4.71,1.322s-.457,3.109-.226,3.331.2,1.071.2,1.071a12.408,12.408,0,0,0-.877,1.878A3.859,3.859,0,0,0,651.12,281.986Z" transform="translate(-403.771 -195.971)" fill="#ffcdd3"/>
    <path id="Path_169" data-name="Path 169" d="M651.12,295.3l3.265,1.915.325-.618c-.457-.412-2.059-1.828-2.619-1.787a3.911,3.911,0,0,1-.791,0C651.182,295.1,651.12,295.3,651.12,295.3Z" transform="translate(-403.771 -209.284)" opacity="0.1"/>
    <path id="Path_170" data-name="Path 170" d="M650.2,296.506l3.673,1.989.107-.824.074-.552s-2.1-1.944-2.742-1.9a3.38,3.38,0,0,1-.976-.041l-.07.675Z" transform="translate(-403.23 -209.503)" fill="#dce6f2"/>
    <path id="Path_171" data-name="Path 171" d="M549.65,307.113s16.252,2.471,13.238,1.359a4.106,4.106,0,0,1-3.01-3.661,8.535,8.535,0,0,1,.753-3.751,16.164,16.164,0,0,1,1.573-2.882s-12.213-7.346-9.956-1.009a10.028,10.028,0,0,1,.593,2.985,8.345,8.345,0,0,1-.436,2.977,8.947,8.947,0,0,1-2.755,3.982Z" transform="translate(-344.082 -209.157)" fill="#ffcdd3"/>
    <path id="Path_172" data-name="Path 172" d="M555.6,297.133a10.028,10.028,0,0,1,.593,2.985c1.136,1.029,2.429,1.017,4.081,1.079,1.276.049,2.672.412,3.706-.161a16.164,16.164,0,0,1,1.573-2.882S553.325,290.8,555.6,297.133Z" transform="translate(-347.415 -209.138)" opacity="0.1"/>
    <circle id="Ellipse_9" data-name="Ellipse 9" cx="6.753" cy="6.753" r="6.753" transform="translate(206.552 78.994)" fill="#ffcdd3"/>
    <path id="Path_173" data-name="Path 173" d="M549.65,318.419s16.252,2.471,13.238,1.359a4.106,4.106,0,0,1-3.01-3.66,9,9,0,0,0-3.422-1.989,4.9,4.9,0,0,0-2.956-.161,4.164,4.164,0,0,0-1.1.457A8.947,8.947,0,0,1,549.65,318.419Z" transform="translate(-344.082 -220.464)" opacity="0.1"/>
    <path id="Path_174" data-name="Path 174" d="M527.92,301.12l3.092.824.086-.461a2.759,2.759,0,0,0-2.961-1.141Z" transform="translate(-331.299 -212.491)" opacity="0.1"/>
    <path id="Path_175" data-name="Path 175" d="M650.2,297.471l3.673,1.989.107-.823a27.646,27.646,0,0,0-3.706-1.816Z" transform="translate(-403.23 -210.468)" opacity="0.1"/>
    <path id="Path_176" data-name="Path 176" d="M530.12,419.093c6.283,1.235,15.235,2.882,16.672,2.508,1.2-.317,4.982-.132,8.268.107.037-1.647.049-2.742.049-2.742l-24.4-3.5A19.985,19.985,0,0,1,530.12,419.093Z" transform="translate(-332.593 -280.263)" opacity="0.1"/>
    <path id="Path_177" data-name="Path 177" d="M515,347.949s20.678,4.373,22.939,3.78,13.7.585,13.7.585c5.028,3.656,3.072-1.532,3.072-1.532a12.5,12.5,0,0,0,0-4.826,29.594,29.594,0,0,1-.663-4.855s.243-3.4-.35-4.216-1.112-6.518-1.112-6.518-.412-3.879-.329-4.727-.045-3.24-.045-3.24l-.585-4c4.274-.412,17.512-7.848,17.512-7.848.729-2.639,5.789-8.7,5.789-8.7a6.428,6.428,0,0,1,.453-1.515c.379-.893-4.657-2.882-4.657-2.882s-3.982,4.5-4.822,5.719a25.932,25.932,0,0,1-3.656,3.438,2.779,2.779,0,0,0-1.235.115h-.066a10.11,10.11,0,0,0-2.6,1.363,4.941,4.941,0,0,0-3.508,1.169s-2.314-.412-2.726-.049-2.38-.091-2.38-.091-1.824-4.274-3.175-3.1-6.889.9-6.889.9a8.162,8.162,0,0,0-3.574-2.186,4.9,4.9,0,0,0-2.956-.165,3.771,3.771,0,0,0-1.19.523l-3.483,3.158s-.918-1.285-.795-1.565-1.112-.556-1.112-.556-1.647-.572-2.244-.766-1.215.457-1.268.515a6.62,6.62,0,0,0,.379-2.471,2.846,2.846,0,0,1,.758-2.013c-1.8-4.941-6.436-1.046-6.436-1.046s-.613,2.648-.2,3.685-.576,3.158-.486,3.73-.284,1.523-.325,2.6a15.449,15.449,0,0,0,.754,4.06c.3.918,2.948,3.068,2.948,3.068a12.818,12.818,0,0,0,1.165,5.159c1.12,1.919.136,8.3.136,8.3s-1.326,4.941-2.808,6.481S515,347.949,515,347.949Z" transform="translate(-323.699 -210.844)" fill="#3f3d56"/>
    <path id="Path_178" data-name="Path 178" d="M591.984,327.445s.7-1.849,1.268-2a13.14,13.14,0,0,0,1.676-.675l-.338-.712s-2.154.5-2.52,1.116A4.866,4.866,0,0,0,591.984,327.445Z" transform="translate(-368.924 -226.492)" opacity="0.1"/>
    <path id="Path_179" data-name="Path 179" d="M620.2,321.314c.095.568,5.122,1.276,5.122,1.276l-2.471-2.66h-.062A10.109,10.109,0,0,0,620.2,321.314Z" transform="translate(-385.583 -224.062)" opacity="0.1"/>
    <path id="Path_180" data-name="Path 180" d="M557.878,369.6c.058-.062-13.349,15.589-22.918,5.88C534.976,375.48,550.561,378.21,557.878,369.6Z" transform="translate(-335.44 -253.28)" opacity="0.1"/>
    <path id="Path_181" data-name="Path 181" d="M587.684,349.94a24.68,24.68,0,0,1-3.162,4.966,19.947,19.947,0,0,1-4.822,4.307S587.515,350.986,587.684,349.94Z" transform="translate(-361.759 -241.716)" opacity="0.1"/>
    <path id="Path_182" data-name="Path 182" d="M599.07,328.58s-1.491,5.46-4.85,7.206Z" transform="translate(-370.3 -229.151)" opacity="0.1"/>
    <path id="Path_183" data-name="Path 183" d="M604.265,330.118c.037-.1.968,4.4-4.5,6.662C599.76,336.78,602.074,336.092,604.265,330.118Z" transform="translate(-373.559 -230.054)" opacity="0.1"/>
    <path id="Path_184" data-name="Path 184" d="M524.916,317.989a39.506,39.506,0,0,0-3.5,2.421C521.42,320.418,523.306,317.82,524.916,317.989Z" transform="translate(-327.476 -222.916)" opacity="0.1"/>
    <path id="Path_185" data-name="Path 185" d="M557.4,288.387a1.413,1.413,0,0,1-.56.889,1.367,1.367,0,0,1-.642.119,13.435,13.435,0,0,1-6.082-.824,2.3,2.3,0,0,1-.9-.651,3.773,3.773,0,0,1-.482-1.511,22.247,22.247,0,0,0-1.136-2.915,9.634,9.634,0,0,1-.469-5.151,3.488,3.488,0,0,1,.572-1.491c.576-.758,1.581-1.033,2.326-1.626s1.235-1.523,2.108-1.956a3.767,3.767,0,0,1,2.553-.128,13.337,13.337,0,0,1,4.686,1.968,2.4,2.4,0,0,0,1.569.6,2.182,2.182,0,0,0,1.2-.852,6.206,6.206,0,0,1,.412,2.96,1.343,1.343,0,0,0,0,.445,1.383,1.383,0,0,0,.3.478,1.717,1.717,0,0,1,.243,2.129c-.226.255-.568.383-.791.638-.412.457-.3,1.145-.313,1.754a.9.9,0,0,1-.173.593.877.877,0,0,1-.823.165,2.34,2.34,0,0,0-.885-.119,1.5,1.5,0,0,0-.795.564A10.039,10.039,0,0,0,557.4,288.387Z" transform="translate(-342.504 -196.447)" fill="#3f3d56"/>
    <g id="Group_8" data-name="Group 8" transform="translate(206.437 78.327)" opacity="0.1">
      <path id="Path_186" data-name="Path 186" d="M551.822,295.994a2.286,2.286,0,0,0,.906.651,13.893,13.893,0,0,0,6.082.823,1.474,1.474,0,0,0,.642-.119,1.412,1.412,0,0,0,.56-.893,10.611,10.611,0,0,1,1.873-3.924,1.487,1.487,0,0,1,.795-.564,2.339,2.339,0,0,1,.885.119.869.869,0,0,0,.823-.169.9.9,0,0,0,.173-.593,2.612,2.612,0,0,1,.309-1.75c.222-.259.564-.387.795-.638a1.322,1.322,0,0,0,.181-1.346,1.546,1.546,0,0,1,.029,1.808c-.231.251-.572.383-.795.638-.412.457-.3,1.145-.309,1.754a.9.9,0,0,1-.173.593.877.877,0,0,1-.823.165,2.359,2.359,0,0,0-.885-.119,1.487,1.487,0,0,0-.795.564,10.416,10.416,0,0,0-1.874,3.928,1.412,1.412,0,0,1-.56.889,1.367,1.367,0,0,1-.642.119,13.434,13.434,0,0,1-6.082-.824,2.285,2.285,0,0,1-.906-.651,1.835,1.835,0,0,1-.272-.556Z" transform="translate(-551.76 -283.365)"/>
      <path id="Path_187" data-name="Path 187" d="M584.136,280.632a.977.977,0,0,1-.194-.35,1.234,1.234,0,0,1,0-.441,6.279,6.279,0,0,0-.222-2.471l.037-.041a6.255,6.255,0,0,1,.391,2.961A2.174,2.174,0,0,0,584.136,280.632Z" transform="translate(-570.56 -277.33)"/>
    </g>
    <path id="Path_188" data-name="Path 188" d="M561.726,319.716s-8.478.791-9.186-.506" transform="translate(-345.782 -223.639)" opacity="0.1"/>
    <path id="Path_189" data-name="Path 189" d="M527.125,310.423s-4.686-.173-5.765,1.544" transform="translate(-327.44 -218.467)" opacity="0.1"/>
  </g>
</svg>
