<svg xmlns="http://www.w3.org/2000/svg" width="74" height="24" viewBox="0 0 74 24"><g fill="none" fill-rule="evenodd"><path fill="#00B9F5" d="M72.66 7.06c.14.404.245.797.245 1.719V22.31a.718.718 0 0 1-.716.72H68.95a.718.718 0 0 1-.716-.72L68.222 9.73c.002-.622-.422-1.154-1.121-1.215H66.503A1.188 1.188 0 0 0 65.38 9.73l.002 12.65a.716.716 0 0 1-.712.684h-3.238a.719.719 0 0 1-.716-.72l-.013-12.598c.001-.38-.156-.724-.438-.95-.18-.145-.41-.24-.683-.265h-.597c-.653.058-1.064.522-1.117 1.087a1.323 1.323 0 0 0-.007.128l.003 12.66a.715.715 0 0 1-.707.62h-3.237a.718.718 0 0 1-.716-.718V4.67c0-.397.321-.72.716-.72h3.237c.378 0 .682.294.71.666v.37a4.81 4.81 0 0 1 3.157-1.175h.043c1.372 0 2.609.573 3.49 1.492a4.818 4.818 0 0 1 3.49-1.492h.044a4.842 4.842 0 0 1 4.568 3.25zM50.738 3.998h-1.85V.988h-.002l.001-.005a.656.656 0 0 0-.777-.646c-2.054.565-1.642 3.418-5.39 3.66H42.355a.707.707 0 0 0-.156.02h-.004.003a.717.717 0 0 0-.56.699v3.247c0 .397.322.719.717.719h1.954l-.002 13.77a.71.71 0 0 0 .707.711h3.202a.71.71 0 0 0 .707-.71l.002-13.771h1.813a.718.718 0 0 0 .716-.72V4.717a.717.717 0 0 0-.716-.718"></path><path fill="#012B72" d="M39.088 3.998h-3.237a.717.717 0 0 0-.716.718v6.716a.759.759 0 0 1-.757.749H33.02a.76.76 0 0 1-.759-.761l-.014-6.704a.717.717 0 0 0-.716-.718h-3.237a.717.717 0 0 0-.716.718v7.36c0 2.795 1.988 4.788 4.777 4.788 0 0 2.092 0 2.157.012a.757.757 0 0 1 .01 1.503l-.054.01-4.736.017a.717.717 0 0 0-.716.718v3.247c0 .396.32.717.716.717h5.295c2.789 0 4.777-1.992 4.777-4.788V4.716a.717.717 0 0 0-.717-.718M7.746 9.949v2.004c0 .42-.34.76-.759.76l-2.054.003V8.7h2.054a.76.76 0 0 1 .759.761v.489zm.284-5.952H.952a.703.703 0 0 0-.702.704v3.182l.002.012-.002.052v14.401c0 .392.293.71.655.72h3.299a.717.717 0 0 0 .716-.719l.013-4.936H8.03c2.593 0 4.4-1.803 4.4-4.414V8.418c0-2.61-1.807-4.42-4.4-4.42zM21.181 17.572v.508a.742.742 0 0 1-.043.225.757.757 0 0 1-.72.49H19.07c-.422 0-.764-.32-.764-.715v-.613l-.002-.023.002-1.63V15.3c.003-.393.343-.71.764-.71h1.347c.421 0 .763.319.763.713v2.27zm-.516-13.556h-4.492c-.397 0-.72.302-.72.674v1.263l.003.025c0 .009-.002.017-.002.017v1.74c0 .394.34.714.762.714h4.279a.743.743 0 0 1 .643.687v.419c-.039.367-.303.636-.626.667h-2.117c-2.819 0-4.827 1.878-4.827 4.513v3.778c0 2.621 1.726 4.485 4.524 4.485h5.873c1.053 0 1.907-.799 1.907-1.785V8.891c0-2.988-1.536-4.875-5.207-4.875z"></path></g></svg>